<svg version="1.1" id="Layer_1" xmlns="http://www.w3.org/2000/svg" xmlns:xlink="http://www.w3.org/1999/xlink" x="0px" y="0px"
	 width="150px" height="50px" viewBox="0 0 636 392" enable-background="new 0 0 636 392" xml:space="preserve">
<path fill="#000000" opacity="0" stroke="none" 
	d="
M353.000000,393.000000 
	C235.361801,393.000000 118.223610,393.000000 1.042709,393.000000 
	C1.042709,262.393585 1.042709,131.787125 1.042709,1.090338 
	C212.888229,1.090338 424.776520,1.090338 636.832397,1.090338 
	C636.832397,131.666504 636.832397,262.333221 636.832397,393.000000 
	C542.453735,393.000000 447.976868,393.000000 353.000000,393.000000 
M165.342010,229.933746 
	C173.580856,229.924240 173.669373,229.835571 173.683960,221.579498 
	C173.715744,203.583954 173.663574,185.587555 173.847336,167.593552 
	C173.885971,163.809769 174.371918,159.915497 175.404556,156.286331 
	C176.664719,151.857559 179.437790,148.615479 184.757462,148.969894 
	C189.821014,149.307266 192.041321,152.674377 192.909134,157.033691 
	C193.586624,160.436935 193.901840,163.963226 193.922714,167.437576 
	C194.018784,183.433319 193.862381,199.430695 193.974228,215.426224 
	C194.092392,232.326263 191.605606,229.724548 208.512329,229.918518 
	C215.318222,229.996597 215.761337,229.482101 215.778198,222.499130 
	C215.824066,203.503784 215.647964,184.503937 216.054428,165.516464 
	C216.145905,161.243057 217.473785,156.523972 219.721161,152.944748 
	C221.083771,150.774597 225.261185,149.585266 228.252197,149.426392 
	C231.859955,149.234726 234.335037,152.061325 234.977936,155.688431 
	C235.584335,159.109482 235.957901,162.617706 235.974380,166.089783 
	C236.066116,185.418304 236.097580,204.748077 235.955643,224.076004 
	C235.924469,228.321121 237.283310,230.302139 241.717346,229.977798 
	C244.866440,229.747452 248.046051,229.947067 251.211929,229.931030 
	C257.090698,229.901260 257.703461,229.318390 257.719055,223.296219 
	C257.777771,200.635071 257.842834,177.973785 257.799591,155.312744 
	C257.792633,151.662872 257.473297,147.978271 256.905457,144.371582 
	C255.361313,134.563568 247.967422,126.783119 238.977661,125.205353 
	C230.244385,123.672600 221.651047,128.106094 216.520782,136.804947 
	C215.622208,138.328568 214.766418,139.877426 213.650742,141.836227 
	C209.593109,132.777603 204.753036,125.444458 194.091461,125.030151 
	C183.739914,124.627884 177.894196,130.951035 173.251709,140.019638 
	C171.453598,127.036438 171.453598,127.036438 159.089828,127.056450 
	C158.923203,127.056717 158.756561,127.056068 158.589935,127.056694 
	C152.106064,127.081047 151.921875,127.246063 151.919510,133.906723 
	C151.909668,161.733795 151.880798,189.560944 151.929214,217.387924 
	C151.954010,231.630768 150.293869,229.819244 165.342010,229.933746 
M322.372955,220.790115 
	C323.911438,222.957947 325.439789,225.133072 326.990692,227.291977 
	C329.592102,230.913345 332.229584,231.479660 335.361328,227.728973 
	C337.918549,224.666336 340.649628,221.706482 343.598022,219.024734 
	C346.539703,216.349136 346.577606,213.804413 344.399139,210.745163 
	C340.254272,204.924576 339.276489,198.303665 339.315094,191.307404 
	C339.388702,177.978531 339.420502,164.640976 339.023315,151.320312 
	C338.602875,137.219620 331.985992,129.162064 318.537354,125.381538 
	C300.244934,120.239388 280.994568,129.316620 275.521545,145.665070 
	C272.285095,155.332565 272.900482,156.360474 282.754425,157.746231 
	C291.792816,159.017273 291.792786,159.017258 295.809143,150.945984 
	C298.462677,145.613373 302.796509,143.241302 308.394592,144.057480 
	C313.157654,144.751907 316.410400,148.369049 317.000610,154.253723 
	C317.342438,157.661697 317.062714,161.132019 317.062714,164.779251 
	C311.666779,165.569046 306.564758,166.158707 301.523468,167.080429 
	C277.364532,171.497437 265.420441,191.386597 272.915131,214.585098 
	C276.472870,225.597427 284.620789,231.362274 296.173157,231.207947 
	C305.103882,231.088623 312.151764,227.291885 317.908081,220.655273 
	C318.961395,219.440887 320.143433,216.431412 322.372955,220.790115 
M76.189758,134.703552 
	C74.262611,137.789841 71.885986,140.686646 70.490524,143.997055 
	C65.844612,155.018463 66.949593,156.714630 78.671860,157.927872 
	C86.384247,158.726089 86.384247,158.726089 89.909729,151.299850 
	C92.446815,145.955612 96.895248,143.352753 102.309738,144.044403 
	C107.341904,144.687225 110.276459,147.878067 111.331612,153.854187 
	C113.194252,164.403793 112.971458,164.700439 102.170670,166.051773 
	C74.910095,169.462494 62.989433,183.304550 65.894615,208.250397 
	C67.025520,217.961075 70.946686,226.106842 80.674759,229.558075 
	C90.788933,233.146286 100.371758,231.515030 108.602493,224.209396 
	C110.701553,222.346268 112.616882,220.276154 114.695976,218.222778 
	C117.260559,221.660339 119.745308,225.155441 122.410049,228.507462 
	C124.329735,230.922272 126.494583,231.032440 128.708405,228.683304 
	C131.791229,225.412048 134.812759,222.064560 138.108597,219.018082 
	C141.021957,216.325211 141.005569,213.662674 138.900909,210.663177 
	C135.011276,205.119827 133.823685,198.930786 133.904404,192.237137 
	C134.061050,179.248962 134.089996,166.252472 133.798752,153.267807 
	C133.563080,142.760559 130.325302,133.595505 120.247566,128.306503 
	C105.997345,120.827682 88.597542,123.186516 76.189758,134.703552 
M572.282349,155.073166 
	C571.552490,150.156128 571.427734,145.049957 569.962524,140.362808 
	C567.215820,131.576492 561.252014,125.966087 551.656189,125.074150 
	C542.046997,124.180954 535.934998,129.063599 531.802368,137.181931 
	C531.018250,138.722275 530.181213,140.235672 529.368591,141.761505 
	C528.477844,138.113556 528.498962,134.675217 528.471252,131.237259 
	C528.448608,128.428024 527.190002,126.950485 524.180359,127.040970 
	C520.353699,127.156013 516.517395,127.162498 512.691528,127.031792 
	C509.264343,126.914711 507.926758,128.442566 507.931854,131.808746 
	C507.979034,162.950195 507.973877,194.091766 507.938263,225.233246 
	C507.934387,228.621979 509.424103,230.081345 512.796448,229.960220 
	C516.122681,229.840759 519.456604,229.944824 522.787048,229.933228 
	C529.261841,229.910660 529.759338,229.413940 529.780518,222.746948 
	C529.838135,204.595306 529.589966,186.435349 530.109985,168.297226 
	C530.256165,163.198105 532.242126,158.009018 534.132568,153.152466 
	C535.407349,149.877563 538.838440,147.772339 542.311829,149.100647 
	C544.914124,150.095840 547.889404,152.440048 548.838684,154.901062 
	C550.347839,158.813202 550.790955,163.318237 550.837158,167.581680 
	C551.039062,186.231155 550.927307,204.883972 550.948059,223.535538 
	C550.954895,229.719131 551.177917,229.914474 557.530457,229.932266 
	C560.694580,229.941132 563.873230,229.743027 567.019226,229.982040 
	C571.198608,230.299576 572.702454,228.377853 572.676636,224.434387 
	C572.527344,201.622345 572.446838,178.809860 572.282349,155.073166 
M490.276459,147.242325 
	C484.804962,134.031464 475.730072,125.179756 460.763428,125.065331 
	C446.268555,124.954521 436.512115,133.228012 431.303406,145.950531 
	C422.277222,167.997437 422.164368,190.503647 432.070526,212.337830 
	C437.388947,224.060211 446.581329,232.005188 460.313873,231.977097 
	C474.177826,231.948746 483.236176,223.981018 489.022400,212.157822 
	C499.343475,191.068268 499.372955,169.563690 490.276459,147.242325 
M222.984070,300.500671 
	C277.271149,315.094116 327.130402,305.427460 372.793762,273.050232 
	C375.622131,271.044769 378.371124,268.686676 380.434387,265.948151 
	C381.412292,264.650177 381.360962,261.669739 380.499542,260.199158 
	C379.884247,259.148743 377.136230,259.041412 375.354462,259.086761 
	C374.142365,259.117615 372.956268,260.141785 371.757202,260.718903 
	C341.945740,275.067749 310.561646,283.374847 277.439209,283.816803 
	C228.176758,284.474182 183.341721,269.957642 142.342667,242.952454 
	C141.002609,242.069778 138.943832,242.278214 137.220093,241.978043 
	C137.604080,243.750519 137.415665,246.047226 138.473679,247.202423 
	C142.512405,251.612305 146.821289,255.800079 151.265335,259.809143 
	C171.949753,278.469025 195.222961,292.631500 222.984070,300.500671 
M416.076538,132.708221 
	C416.720612,128.028214 414.589691,126.699600 410.054443,126.782417 
	C396.399414,127.031807 382.735962,126.773521 369.077637,126.905197 
	C358.683807,127.005409 358.472931,124.490303 358.497711,137.272217 
	C358.520050,148.806747 358.261383,147.398376 368.862732,147.474152 
	C375.049469,147.518372 381.236755,147.482208 388.388824,147.482208 
	C379.819000,162.207001 372.436157,176.168839 363.803467,189.309647 
	C357.237396,199.304611 354.615936,209.651367 355.549713,221.341187 
	C356.052032,227.629074 356.717041,228.288498 362.218292,225.405060 
	C376.821503,217.750839 391.702240,216.859329 406.923431,223.415802 
	C417.879852,228.135239 417.877686,228.140106 417.853210,215.866623 
	C417.830994,204.747833 417.060272,203.102844 406.425507,199.590302 
	C399.941345,197.448654 393.021088,196.627304 386.054871,195.162064 
	C394.120544,181.489182 402.112000,167.520340 410.549744,153.826462 
	C414.435944,147.519394 417.086365,141.164688 416.076538,132.708221 
M393.685394,238.017517 
	C383.331848,238.608017 373.664276,241.355759 365.337250,247.707153 
	C363.557800,249.064438 362.572754,251.463211 361.221741,253.382187 
	C363.454651,253.777222 365.707611,254.595749 367.916870,254.491165 
	C375.879578,254.114166 383.825012,253.002029 391.781708,252.954041 
	C403.988708,252.880417 407.124695,256.644501 404.468506,268.609924 
	C402.061279,279.453583 398.649689,290.071655 395.860596,300.835724 
	C395.379181,302.693695 395.794006,304.783905 395.794800,306.766815 
	C397.629639,305.707001 399.928864,305.044495 401.227783,303.526215 
	C414.893280,287.552338 419.526398,268.479126 419.897247,247.992889 
	C419.974701,243.715500 418.078369,240.775253 413.858368,240.138718 
	C407.487885,239.177795 401.047943,238.677444 393.685394,238.017517 
z"/>
<path fill="#FAFAFA" opacity="1.000000" stroke="none" 
	d="
M164.868088,229.933716 
	C150.293869,229.819244 151.954010,231.630768 151.929214,217.387924 
	C151.880798,189.560944 151.909668,161.733795 151.919510,133.906723 
	C151.921875,127.246063 152.106064,127.081047 158.589935,127.056694 
	C158.756561,127.056068 158.923203,127.056717 159.089828,127.056450 
	C171.453598,127.036438 171.453598,127.036438 173.251709,140.019638 
	C177.894196,130.951035 183.739914,124.627884 194.091461,125.030151 
	C204.753036,125.444458 209.593109,132.777603 213.650742,141.836227 
	C214.766418,139.877426 215.622208,138.328568 216.520782,136.804947 
	C221.651047,128.106094 230.244385,123.672600 238.977661,125.205353 
	C247.967422,126.783119 255.361313,134.563568 256.905457,144.371582 
	C257.473297,147.978271 257.792633,151.662872 257.799591,155.312744 
	C257.842834,177.973785 257.777771,200.635071 257.719055,223.296219 
	C257.703461,229.318390 257.090698,229.901260 251.211929,229.931030 
	C248.046051,229.947067 244.866440,229.747452 241.717346,229.977798 
	C237.283310,230.302139 235.924469,228.321121 235.955643,224.076004 
	C236.097580,204.748077 236.066116,185.418304 235.974380,166.089783 
	C235.957901,162.617706 235.584335,159.109482 234.977936,155.688431 
	C234.335037,152.061325 231.859955,149.234726 228.252197,149.426392 
	C225.261185,149.585266 221.083771,150.774597 219.721161,152.944748 
	C217.473785,156.523972 216.145905,161.243057 216.054428,165.516464 
	C215.647964,184.503937 215.824066,203.503784 215.778198,222.499130 
	C215.761337,229.482101 215.318222,229.996597 208.512329,229.918518 
	C191.605606,229.724548 194.092392,232.326263 193.974228,215.426224 
	C193.862381,199.430695 194.018784,183.433319 193.922714,167.437576 
	C193.901840,163.963226 193.586624,160.436935 192.909134,157.033691 
	C192.041321,152.674377 189.821014,149.307266 184.757462,148.969894 
	C179.437790,148.615479 176.664719,151.857559 175.404556,156.286331 
	C174.371918,159.915497 173.885971,163.809769 173.847336,167.593552 
	C173.663574,185.587555 173.715744,203.583954 173.683960,221.579498 
	C173.669373,229.835571 173.580856,229.924240 164.868088,229.933716 
z"/>
<path fill="#FAFAFA" opacity="1.000000" stroke="none" 
	d="
M322.199524,220.438965 
	C320.143433,216.431412 318.961395,219.440887 317.908081,220.655273 
	C312.151764,227.291885 305.103882,231.088623 296.173157,231.207947 
	C284.620789,231.362274 276.472870,225.597427 272.915131,214.585098 
	C265.420441,191.386597 277.364532,171.497437 301.523468,167.080429 
	C306.564758,166.158707 311.666779,165.569046 317.062714,164.779251 
	C317.062714,161.132019 317.342438,157.661697 317.000610,154.253723 
	C316.410400,148.369049 313.157654,144.751907 308.394592,144.057480 
	C302.796509,143.241302 298.462677,145.613373 295.809143,150.945984 
	C291.792786,159.017258 291.792816,159.017273 282.754425,157.746231 
	C272.900482,156.360474 272.285095,155.332565 275.521545,145.665070 
	C280.994568,129.316620 300.244934,120.239388 318.537354,125.381538 
	C331.985992,129.162064 338.602875,137.219620 339.023315,151.320312 
	C339.420502,164.640976 339.388702,177.978531 339.315094,191.307404 
	C339.276489,198.303665 340.254272,204.924576 344.399139,210.745163 
	C346.577606,213.804413 346.539703,216.349136 343.598022,219.024734 
	C340.649628,221.706482 337.918549,224.666336 335.361328,227.728973 
	C332.229584,231.479660 329.592102,230.913345 326.990692,227.291977 
	C325.439789,225.133072 323.911438,222.957947 322.199524,220.438965 
M308.135132,211.097107 
	C319.118622,203.124359 316.998230,191.437332 317.430878,180.369995 
	C300.863312,178.696854 291.070068,189.315063 294.881256,204.143677 
	C296.636322,210.972290 300.384247,213.160431 308.135132,211.097107 
z"/>
<path fill="#FBFBFB" opacity="1.000000" stroke="none" 
	d="
M76.434868,134.446716 
	C88.597542,123.186516 105.997345,120.827682 120.247566,128.306503 
	C130.325302,133.595505 133.563080,142.760559 133.798752,153.267807 
	C134.089996,166.252472 134.061050,179.248962 133.904404,192.237137 
	C133.823685,198.930786 135.011276,205.119827 138.900909,210.663177 
	C141.005569,213.662674 141.021957,216.325211 138.108597,219.018082 
	C134.812759,222.064560 131.791229,225.412048 128.708405,228.683304 
	C126.494583,231.032440 124.329735,230.922272 122.410049,228.507462 
	C119.745308,225.155441 117.260559,221.660339 114.695976,218.222778 
	C112.616882,220.276154 110.701553,222.346268 108.602493,224.209396 
	C100.371758,231.515030 90.788933,233.146286 80.674759,229.558075 
	C70.946686,226.106842 67.025520,217.961075 65.894615,208.250397 
	C62.989433,183.304550 74.910095,169.462494 102.170670,166.051773 
	C112.971458,164.700439 113.194252,164.403793 111.331612,153.854187 
	C110.276459,147.878067 107.341904,144.687225 102.309738,144.044403 
	C96.895248,143.352753 92.446815,145.955612 89.909729,151.299850 
	C86.384247,158.726089 86.384247,158.726089 78.671860,157.927872 
	C66.949593,156.714630 65.844612,155.018463 70.490524,143.997055 
	C71.885986,140.686646 74.262611,137.789841 76.434868,134.446716 
M89.299370,204.886734 
	C90.702110,208.620346 92.578506,211.843002 97.138565,212.190872 
	C101.879135,212.552521 104.979248,210.035980 107.320030,206.300064 
	C112.377861,198.227768 111.997215,189.320816 111.575180,180.410995 
	C95.709068,178.280289 86.574409,188.089066 89.299370,204.886734 
z"/>
<path fill="#FAFAFA" opacity="1.000000" stroke="none" 
	d="
M572.312744,155.535339 
	C572.446838,178.809860 572.527344,201.622345 572.676636,224.434387 
	C572.702454,228.377853 571.198608,230.299576 567.019226,229.982040 
	C563.873230,229.743027 560.694580,229.941132 557.530457,229.932266 
	C551.177917,229.914474 550.954895,229.719131 550.948059,223.535538 
	C550.927307,204.883972 551.039062,186.231155 550.837158,167.581680 
	C550.790955,163.318237 550.347839,158.813202 548.838684,154.901062 
	C547.889404,152.440048 544.914124,150.095840 542.311829,149.100647 
	C538.838440,147.772339 535.407349,149.877563 534.132568,153.152466 
	C532.242126,158.009018 530.256165,163.198105 530.109985,168.297226 
	C529.589966,186.435349 529.838135,204.595306 529.780518,222.746948 
	C529.759338,229.413940 529.261841,229.910660 522.787048,229.933228 
	C519.456604,229.944824 516.122681,229.840759 512.796448,229.960220 
	C509.424103,230.081345 507.934387,228.621979 507.938263,225.233246 
	C507.973877,194.091766 507.979034,162.950195 507.931854,131.808746 
	C507.926758,128.442566 509.264343,126.914711 512.691528,127.031792 
	C516.517395,127.162498 520.353699,127.156013 524.180359,127.040970 
	C527.190002,126.950485 528.448608,128.428024 528.471252,131.237259 
	C528.498962,134.675217 528.477844,138.113556 529.368591,141.761505 
	C530.181213,140.235672 531.018250,138.722275 531.802368,137.181931 
	C535.934998,129.063599 542.046997,124.180954 551.656189,125.074150 
	C561.252014,125.966087 567.215820,131.576492 569.962524,140.362808 
	C571.427734,145.049957 571.552490,150.156128 572.312744,155.535339 
z"/>
<path fill="#FBFBFB" opacity="1.000000" stroke="none" 
	d="
M490.464783,147.577728 
	C499.372955,169.563690 499.343475,191.068268 489.022400,212.157822 
	C483.236176,223.981018 474.177826,231.948746 460.313873,231.977097 
	C446.581329,232.005188 437.388947,224.060211 432.070526,212.337830 
	C422.164368,190.503647 422.277222,167.997437 431.303406,145.950531 
	C436.512115,133.228012 446.268555,124.954521 460.763428,125.065331 
	C475.730072,125.179756 484.804962,134.031464 490.464783,147.577728 
M448.933197,163.543427 
	C448.783081,165.200897 448.392914,166.877213 448.521210,168.512848 
	C449.452240,180.383881 450.117279,192.296005 451.685974,204.086105 
	C452.255585,208.367157 455.504547,212.023041 460.655823,212.050354 
	C465.767975,212.077454 468.275330,208.471329 469.954010,204.281204 
	C470.872711,201.987976 471.819122,199.517731 471.885742,197.103378 
	C472.196991,185.823166 472.437469,174.529770 472.200958,163.251617 
	C472.115601,159.180038 470.965179,155.026794 469.680389,151.114563 
	C468.476807,147.449524 465.740387,145.081223 461.538757,144.796249 
	C457.156464,144.499023 453.872650,146.396500 452.345367,150.234207 
	C450.770508,154.191513 450.077026,158.499542 448.933197,163.543427 
z"/>
<path fill="#F89702" opacity="1.000000" stroke="none" 
	d="
M222.602509,300.365967 
	C195.222961,292.631500 171.949753,278.469025 151.265335,259.809143 
	C146.821289,255.800079 142.512405,251.612305 138.473679,247.202423 
	C137.415665,246.047226 137.604080,243.750519 137.220093,241.978043 
	C138.943832,242.278214 141.002609,242.069778 142.342667,242.952454 
	C183.341721,269.957642 228.176758,284.474182 277.439209,283.816803 
	C310.561646,283.374847 341.945740,275.067749 371.757202,260.718903 
	C372.956268,260.141785 374.142365,259.117615 375.354462,259.086761 
	C377.136230,259.041412 379.884247,259.148743 380.499542,260.199158 
	C381.360962,261.669739 381.412292,264.650177 380.434387,265.948151 
	C378.371124,268.686676 375.622131,271.044769 372.793762,273.050232 
	C327.130402,305.427460 277.271149,315.094116 222.602509,300.365967 
z"/>
<path fill="#FBFBFB" opacity="1.000000" stroke="none" 
	d="
M416.067261,133.181122 
	C417.086365,141.164688 414.435944,147.519394 410.549744,153.826462 
	C402.112000,167.520340 394.120544,181.489182 386.054871,195.162064 
	C393.021088,196.627304 399.941345,197.448654 406.425507,199.590302 
	C417.060272,203.102844 417.830994,204.747833 417.853210,215.866623 
	C417.877686,228.140106 417.879852,228.135239 406.923431,223.415802 
	C391.702240,216.859329 376.821503,217.750839 362.218292,225.405060 
	C356.717041,228.288498 356.052032,227.629074 355.549713,221.341187 
	C354.615936,209.651367 357.237396,199.304611 363.803467,189.309647 
	C372.436157,176.168839 379.819000,162.207001 388.388824,147.482208 
	C381.236755,147.482208 375.049469,147.518372 368.862732,147.474152 
	C358.261383,147.398376 358.520050,148.806747 358.497711,137.272217 
	C358.472931,124.490303 358.683807,127.005409 369.077637,126.905197 
	C382.735962,126.773521 396.399414,127.031807 410.054443,126.782417 
	C414.589691,126.699600 416.720612,128.028214 416.067261,133.181122 
z"/>
<path fill="#F69602" opacity="1.000000" stroke="none" 
	d="
M394.161438,237.999451 
	C401.047943,238.677444 407.487885,239.177795 413.858368,240.138718 
	C418.078369,240.775253 419.974701,243.715500 419.897247,247.992889 
	C419.526398,268.479126 414.893280,287.552338 401.227783,303.526215 
	C399.928864,305.044495 397.629639,305.707001 395.794800,306.766815 
	C395.794006,304.783905 395.379181,302.693695 395.860596,300.835724 
	C398.649689,290.071655 402.061279,279.453583 404.468506,268.609924 
	C407.124695,256.644501 403.988708,252.880417 391.781708,252.954041 
	C383.825012,253.002029 375.879578,254.114166 367.916870,254.491165 
	C365.707611,254.595749 363.454651,253.777222 361.221741,253.382172 
	C362.572754,251.463211 363.557800,249.064438 365.337250,247.707153 
	C373.664276,241.355759 383.331848,238.608017 394.161438,237.999451 
z"/>
<path fill="#040404" opacity="1.000000" stroke="none" 
	d="
M307.784088,211.284409 
	C300.384247,213.160431 296.636322,210.972290 294.881256,204.143677 
	C291.070068,189.315063 300.863312,178.696854 317.430878,180.369995 
	C316.998230,191.437332 319.118622,203.124359 307.784088,211.284409 
z"/>
<path fill="#060606" opacity="1.000000" stroke="none" 
	d="
M89.191391,204.501617 
	C86.574409,188.089066 95.709068,178.280289 111.575180,180.410995 
	C111.997215,189.320816 112.377861,198.227768 107.320030,206.300064 
	C104.979248,210.035980 101.879135,212.552521 97.138565,212.190872 
	C92.578506,211.843002 90.702110,208.620346 89.191391,204.501617 
z"/>
<path fill="#040404" opacity="1.000000" stroke="none" 
	d="
M448.965576,163.098770 
	C450.077026,158.499542 450.770508,154.191513 452.345367,150.234207 
	C453.872650,146.396500 457.156464,144.499023 461.538757,144.796249 
	C465.740387,145.081223 468.476807,147.449524 469.680389,151.114563 
	C470.965179,155.026794 472.115601,159.180038 472.200958,163.251617 
	C472.437469,174.529770 472.196991,185.823166 471.885742,197.103378 
	C471.819122,199.517731 470.872711,201.987976 469.954010,204.281204 
	C468.275330,208.471329 465.767975,212.077454 460.655823,212.050354 
	C455.504547,212.023041 452.255585,208.367157 451.685974,204.086105 
	C450.117279,192.296005 449.452240,180.383881 448.521210,168.512848 
	C448.392914,166.877213 448.783081,165.200897 448.965576,163.098770 
z"/>
</svg>