<svg version="1.1" id="Layer_1" xmlns="http://www.w3.org/2000/svg" xmlns:xlink="http://www.w3.org/1999/xlink" x="0px" y="0px"
	 width="100%" viewBox="0 0 275 183" enable-background="new 0 0 275 183" xml:space="preserve">
<path fill="#000000" opacity="1.000000" stroke="none" 
	d="
M276.000000,123.000000 
	C276.000000,143.310898 276.000000,163.621811 276.000000,183.966354 
	C184.456894,183.966354 92.913765,183.966354 1.000000,183.966354 
	C1.000000,163.980637 1.000000,143.958969 1.468657,123.468796 
	C93.291542,123.000175 184.645767,123.000084 276.000000,123.000000 
z"/>
<path fill="#CE1126" opacity="1.000000" stroke="none" 
	d="
M1.000000,61.000000 
	C1.000000,41.022171 1.000000,21.044342 1.000000,1.033256 
	C92.542870,1.033256 184.085754,1.033256 276.000000,1.033256 
	C276.000000,20.686005 276.000000,40.374344 275.531342,60.531342 
	C183.708450,61.000000 92.354225,61.000000 1.000000,61.000000 
z"/>
<path fill="#FFFFFF" opacity="1.000000" stroke="none" 
	d="
M276.000000,122.531342 
	C184.645767,123.000084 93.291542,123.000175 1.468657,123.000137 
	C1.000000,102.979103 1.000000,82.958214 1.468657,62.468494 
	C93.291542,61.999779 184.645767,61.999889 276.000000,62.000000 
	C276.000000,82.020897 276.000000,102.041786 276.000000,122.531342 
M134.017029,77.499786 
	C134.140427,77.772446 134.263824,78.045097 134.387222,78.317749 
	C134.509842,78.228554 134.744919,78.069977 134.738876,78.060173 
	C134.512817,77.693764 134.264511,77.341072 133.674057,76.512955 
	C133.071899,76.416321 132.469742,76.319687 131.867584,76.223053 
	C131.842163,76.434113 131.816727,76.645180 131.791290,76.856239 
	C132.520630,76.911156 133.249969,76.966064 134.017029,77.499786 
M147.988342,117.621513 
	C148.175873,117.866577 148.363403,118.111641 148.550934,118.356705 
	C148.700378,117.908127 148.849838,117.459557 148.966461,116.416107 
	C148.652832,115.947472 148.339203,115.478836 148.321609,114.470016 
	C148.906845,114.371712 149.492081,114.273407 150.424301,114.577957 
	C150.947250,114.078842 151.470184,113.579727 152.655075,113.079330 
	C153.090714,113.141800 153.526352,113.204269 154.076965,113.938110 
	C154.360779,115.816833 154.644592,117.695557 155.019684,120.178436 
	C156.935471,117.319672 159.095001,115.119034 154.989365,112.323349 
	C153.323532,111.223465 151.657684,110.123581 150.005432,108.175896 
	C150.018707,107.043404 150.031982,105.910904 150.708435,105.019539 
	C153.144531,107.011002 155.580612,109.002464 158.200439,111.475029 
	C158.660339,111.700996 159.120239,111.926956 159.580124,112.152924 
	C159.607330,111.760345 159.634537,111.367767 159.752350,110.276825 
	C159.650513,109.822960 159.548676,109.369095 159.597443,108.495811 
	C159.597443,108.495811 159.340607,108.131630 159.514282,107.313263 
	C159.226196,100.864594 158.938126,94.415924 158.767181,87.499687 
	C158.767181,87.499687 158.600693,87.047333 158.731812,86.315620 
	C158.613464,85.839027 158.495117,85.362442 158.561203,84.534622 
	C158.452667,84.273926 158.266388,84.093399 158.006302,83.131721 
	C158.006302,80.929276 158.006302,78.726822 158.006302,75.689491 
	C155.889008,77.048897 154.357422,78.032257 152.438614,79.264465 
	C152.203522,79.478195 152.050842,79.739998 151.418350,80.009773 
	C150.975174,80.350182 150.532013,80.690598 149.667801,81.138985 
	C149.391617,81.259239 149.179520,81.450539 148.277634,81.815979 
	C147.522659,81.903145 146.767670,81.990311 145.726028,81.568245 
	C145.141052,81.762108 144.556061,81.955963 143.305634,81.958313 
	C142.852325,81.874611 142.399033,81.790916 141.898560,81.087440 
	C141.037506,80.419044 140.176453,79.750648 139.000946,78.838158 
	C141.062805,78.139313 142.802383,77.549698 144.283234,77.047775 
	C143.230927,75.625191 142.301041,74.007843 141.021149,72.745361 
	C139.881180,71.620903 138.353760,70.889214 137.016129,69.208214 
	C138.039169,67.682739 139.062195,66.157272 140.583374,63.889000 
	C139.178055,63.889000 137.750259,63.889000 136.322464,63.889000 
	C136.893677,66.233833 132.550491,68.998161 136.894348,71.741173 
	C135.081772,74.841949 139.281204,79.050308 134.368805,81.778954 
	C133.909622,81.826736 133.450455,81.874519 132.733002,81.456734 
	C132.106628,81.808792 131.480240,82.160858 130.203491,82.660141 
	C129.984909,82.700485 129.766342,82.740822 129.560715,82.825020 
	C129.560715,82.825020 129.592102,82.801292 129.166550,82.273438 
	C128.756699,82.261551 128.346848,82.249664 128.027145,81.983910 
	C128.027145,81.983910 128.045929,81.715157 127.744949,81.384682 
	C127.510208,81.187698 127.241341,81.066299 126.530731,80.859001 
	C126.530731,80.859001 126.122452,80.699188 125.932991,80.237915 
	C125.675987,79.944382 125.371521,79.881798 124.848412,79.618813 
	C124.682915,79.344482 124.453506,79.142891 123.823174,78.383987 
	C122.550224,77.859543 121.277283,77.335106 119.918030,76.269554 
	C119.484001,76.009697 119.049965,75.749840 118.615929,75.489990 
	C118.706741,75.977417 118.797546,76.464844 118.804489,77.784622 
	C118.670486,80.872505 118.536484,83.960388 118.236710,87.497414 
	C118.236710,87.497414 118.353508,87.961700 118.133644,88.879845 
	C118.029900,95.087044 117.926155,101.294250 117.477913,107.889572 
	C117.505775,108.218971 117.533638,108.548378 117.312721,109.550728 
	C117.324440,110.026398 117.336159,110.502060 117.148857,111.439095 
	C117.772873,111.295532 118.396896,111.151978 119.588768,110.758804 
	C119.688492,110.157074 119.788216,109.555336 120.457260,108.927780 
	C120.642479,108.885551 120.827705,108.843315 121.703682,108.784935 
	C123.456161,107.414108 125.208633,106.043274 127.061218,105.437775 
	C127.054390,105.952087 127.047554,106.466393 127.001068,107.659409 
	C127.001419,108.112259 127.001762,108.565102 126.349449,109.279221 
	C124.874115,110.527695 123.398781,111.776169 121.403839,113.277176 
	C118.039963,115.869370 120.781540,117.600159 122.685173,119.444412 
	C122.495094,118.566803 122.305016,117.689201 122.774963,116.975471 
	C123.851669,117.323578 124.928383,117.671684 126.241325,118.437950 
	C126.774681,118.431290 127.308029,118.424622 128.545410,118.353371 
	C129.012787,118.341721 129.480179,118.330078 129.985962,118.992165 
	C130.333496,119.990356 130.681015,120.988548 131.790710,121.989296 
	C132.553955,121.956703 133.317200,121.924110 134.929092,121.939911 
	C137.279144,121.621239 139.629196,121.302567 142.550339,120.557304 
	C142.691605,119.385017 142.832870,118.212723 142.991196,116.378761 
	C142.998825,115.938148 143.006470,115.497528 143.589127,114.968376 
	C144.069611,114.682549 144.550095,114.396729 145.544556,114.327263 
	C146.014160,114.630455 146.483749,114.933647 147.030975,115.781296 
	C147.327530,116.228905 147.624069,116.676514 147.988342,117.621513 
M145.478821,117.594231 
	C145.181396,117.870659 144.883972,118.147095 144.586548,118.423523 
	C144.693649,118.527809 144.882797,118.732346 144.895813,118.721680 
	C145.194626,118.477119 145.474243,118.209106 145.478821,117.594231 
M146.739212,120.935844 
	C146.390503,120.961136 146.041779,120.986427 145.693069,121.011711 
	C145.766266,121.256302 145.839462,121.500893 145.912659,121.745483 
	C146.167480,121.624252 146.422287,121.503029 146.739212,120.935844 
M152.235443,119.799614 
	C152.361588,119.969994 152.487732,120.140366 152.613876,120.310738 
	C152.586548,120.072708 152.559219,119.834671 152.235443,119.799614 
M142.477509,66.602913 
	C142.477509,66.602913 142.395905,66.475616 142.477509,66.602913 
z"/>
<path fill="#CA0000" opacity="1.000000" stroke="none" 
	d="
M276.000000,61.750000 
	C184.645767,61.999889 93.291542,61.999779 1.468657,61.999836 
	C1.000000,62.000000 1.000000,61.500000 1.000000,61.250000 
	C92.354225,61.000000 183.708450,61.000000 275.531342,61.000000 
	C276.000000,61.000000 276.000000,61.500000 276.000000,61.750000 
z"/>
<path fill="#BD8E05" opacity="1.000000" stroke="none" 
	d="
M152.825836,79.015617 
	C154.357422,78.032257 155.889008,77.048897 158.006302,75.689491 
	C158.006302,78.726822 158.006302,80.929276 158.020844,83.728210 
	C158.090637,84.547356 158.204437,84.734406 158.376770,84.885857 
	C158.495117,85.362442 158.613464,85.839027 158.548798,86.776535 
	C158.231750,87.557365 158.326508,87.800629 158.650040,87.967255 
	C158.938126,94.415924 159.226196,100.864594 159.359161,107.816956 
	C159.143448,108.573036 159.224380,108.771233 159.446838,108.915230 
	C159.548676,109.369095 159.650513,109.822960 159.432831,110.620972 
	C158.747772,110.974724 158.382248,110.984329 158.016708,110.993927 
	C155.580612,109.002464 153.144531,107.011002 150.392639,104.703705 
	C150.076828,104.387878 149.985641,104.006126 149.895752,103.715050 
	C149.237442,103.244675 148.669022,103.065369 148.062775,102.541855 
	C147.810013,101.315056 147.595093,100.432487 147.346054,99.549286 
	C147.311920,99.548660 147.365906,99.570045 147.494568,99.509422 
	C147.623245,99.448799 147.740616,99.189651 147.854050,99.002670 
	C148.033142,98.515724 147.999664,98.227226 147.917633,97.550308 
	C147.968185,95.656387 147.968185,94.162361 147.968185,92.668335 
	C147.685028,92.655495 147.401855,92.642654 147.118698,92.629822 
	C147.066940,93.735779 147.015182,94.841743 146.732178,96.019051 
	C146.500931,96.090393 146.043549,95.932114 146.018799,95.647186 
	C145.583694,95.231621 145.173309,95.100983 144.366806,94.945641 
	C143.333054,93.820892 142.235977,92.756920 142.146240,91.613853 
	C141.902756,88.512566 142.086365,85.377731 142.104980,82.106804 
	C142.109299,81.957405 141.945724,81.707214 141.945724,81.707214 
	C142.399033,81.790916 142.852325,81.874611 143.749664,82.323288 
	C144.800034,82.484665 145.406372,82.281067 146.012695,82.077469 
	C146.767670,81.990311 147.522659,81.903145 148.912964,81.841194 
	C149.728485,81.587944 149.908661,81.309486 150.088852,81.031021 
	C150.532013,80.690598 150.975174,80.350182 151.706406,80.453949 
	C151.994461,82.721214 151.994461,84.544304 151.994461,86.367393 
	C152.271591,86.360146 152.548706,86.352898 152.825836,86.345650 
	C152.825836,83.902306 152.825836,81.458961 152.825836,79.015617 
M153.801331,101.923546 
	C153.686096,100.767563 153.570862,99.611580 153.455627,98.455597 
	C152.911911,98.603439 152.368210,98.751282 151.824493,98.899124 
	C152.328522,100.084938 152.832535,101.270760 153.801331,101.923546 
M148.999557,94.950401 
	C149.259567,95.834641 149.519562,96.718887 149.779556,97.603127 
	C150.693771,96.368828 150.655457,95.334091 150.486465,94.321144 
	C150.472580,94.237877 149.570358,94.302803 148.999557,94.950401 
M155.124084,94.163231 
	C155.297882,94.982231 155.471680,95.801224 155.645462,96.620224 
	C156.062927,96.461769 156.480377,96.303322 156.897842,96.144867 
	C156.440964,95.329079 155.984085,94.513298 155.124084,94.163231 
M156.166245,85.015678 
	C156.265594,85.436043 156.364960,85.856400 156.464310,86.276764 
	C156.588913,86.183800 156.829361,86.074646 156.819000,86.000549 
	C156.759338,85.573769 156.640305,85.155281 156.166245,85.015678 
M150.757675,84.194542 
	C150.633743,84.025131 150.509796,83.855721 150.385864,83.686310 
	C150.412094,83.923363 150.438309,84.160423 150.757675,84.194542 
M157.403412,107.487564 
	C157.403412,107.487564 157.524612,107.411858 157.403412,107.487564 
z"/>
<path fill="#BD8E05" opacity="1.000000" stroke="none" 
	d="
M117.347878,110.977730 
	C117.336159,110.502060 117.324440,110.026398 117.564087,109.008766 
	C117.916275,108.145767 117.918594,107.823982 117.822411,107.501450 
	C117.926155,101.294250 118.029900,95.087044 118.366951,88.335800 
	C118.772530,87.491325 118.706604,87.243500 118.402473,87.048271 
	C118.536484,83.960388 118.670486,80.872505 119.129593,77.365860 
	C119.637909,76.901627 119.821121,76.856148 120.004333,76.810661 
	C121.277283,77.335106 122.550224,77.859543 123.927185,79.125717 
	C124.031204,82.503693 124.031204,85.139923 124.031204,87.776161 
	C124.360664,87.796898 124.690117,87.817627 125.019577,87.838356 
	C125.019577,85.242287 125.019577,82.646217 125.019577,80.050148 
	C125.371521,79.881798 125.675987,79.944382 125.988373,80.827980 
	C126.164864,82.395210 126.285965,83.372375 126.407059,84.349541 
	C126.668167,84.361511 126.929276,84.373474 127.190384,84.385437 
	C127.439255,83.669548 127.688118,82.953659 127.936981,82.237778 
	C128.346848,82.249664 128.756699,82.261551 129.189148,82.845062 
	C129.168396,83.893852 129.125046,84.371017 129.044617,85.138885 
	C129.033783,86.018181 129.060013,86.606781 129.144409,88.501656 
	C129.982483,86.666672 130.279160,86.017082 130.378235,84.947800 
	C129.969650,83.945786 129.758713,83.363464 129.547775,82.781151 
	C129.766342,82.740822 129.984909,82.700485 130.826904,82.716278 
	C131.963959,82.489044 132.477615,82.205673 132.991272,81.922302 
	C133.450455,81.874519 133.909622,81.826736 134.630981,81.867668 
	C134.893173,81.956383 134.899780,82.255348 134.912872,82.699776 
	C134.931183,86.081306 135.179840,89.048935 134.817444,91.939957 
	C134.679459,93.040680 133.138504,93.965538 132.068558,94.738953 
	C131.584549,94.983917 131.268936,95.460480 130.775085,96.081039 
	C130.345718,96.467506 130.286743,96.750069 130.299500,97.292938 
	C130.111435,97.666214 130.043839,97.819275 129.665680,98.089630 
	C129.297638,98.832100 129.240158,99.457291 129.127228,100.437218 
	C129.031219,101.508629 128.990631,102.225288 128.653961,102.989792 
	C127.892273,103.582565 127.426689,104.127502 126.961105,104.672440 
	C125.208633,106.043274 123.456161,107.414108 121.351784,108.468506 
	C120.508347,107.634529 120.016815,107.116989 119.525284,106.599442 
	C119.646172,107.384163 119.767052,108.168877 119.887932,108.953598 
	C119.788216,109.555336 119.688492,110.157074 119.026108,110.872719 
	C118.091599,110.983665 117.719734,110.980698 117.347878,110.977730 
M126.956543,95.599922 
	C127.289848,95.909836 127.623161,96.219749 127.956474,96.529655 
	C127.885162,95.242683 127.813850,93.955711 127.742538,92.668739 
	C127.382652,92.716690 127.022758,92.764648 126.662865,92.812607 
	C126.729904,93.532959 126.796944,94.253319 126.956543,95.599922 
M120.264175,83.883461 
	C120.402969,84.434906 120.541763,84.986343 120.680565,85.537788 
	C121.044182,85.345978 121.407791,85.154167 121.771408,84.962357 
	C121.416222,84.457397 121.061028,83.952438 120.264175,83.883461 
M131.614777,90.312057 
	C131.387360,90.006683 131.159943,89.701309 130.932526,89.395935 
	C130.738388,89.582672 130.544266,89.769409 130.350128,89.956146 
	C130.645172,90.195976 130.940216,90.435806 131.614777,90.312057 
M124.845634,100.038033 
	C124.587830,100.191422 124.199020,100.294304 124.114151,100.514389 
	C124.047592,100.686996 124.357040,101.004593 124.499451,101.257782 
	C124.642212,101.004356 124.784981,100.750931 124.845634,100.038033 
z"/>
<path fill="#E6D6B2" opacity="1.000000" stroke="none" 
	d="
M145.030579,114.110909 
	C144.550095,114.396729 144.069611,114.682549 142.965210,114.982658 
	C139.493744,115.350716 136.646210,115.704483 133.454468,116.040733 
	C132.415955,115.987862 131.721649,115.952515 130.954681,115.570686 
	C129.901886,113.783150 128.921753,112.342094 127.962128,110.919037 
	C127.982635,110.937027 127.948273,110.974770 128.210632,110.985352 
	C128.647781,110.996666 128.822556,110.997398 129.254120,110.998482 
	C129.682098,110.999313 129.853302,110.999786 130.183350,111.254356 
	C131.926910,111.319572 133.511581,111.130707 135.465668,110.978600 
	C137.941345,111.021713 140.047638,111.028053 142.424713,111.142532 
	C143.471420,111.792519 144.247375,112.334381 145.020782,113.184937 
	C145.022339,113.699387 145.026459,113.905151 145.030579,114.110909 
z"/>
<path fill="#E8DABA" opacity="1.000000" stroke="none" 
	d="
M136.997345,69.984184 
	C138.353760,70.889214 139.881180,71.620903 141.021149,72.745361 
	C142.301041,74.007843 143.230927,75.625191 144.283234,77.047775 
	C142.802383,77.549698 141.062805,78.139313 139.000946,78.838158 
	C140.176453,79.750648 141.037506,80.419044 141.922150,81.397324 
	C141.945724,81.707214 142.109299,81.957405 141.896423,82.061485 
	C141.683533,82.165565 141.268661,82.065659 140.922928,81.928032 
	C138.962448,81.880875 137.347702,81.971352 135.525421,82.113495 
	C135.317902,82.165176 134.899780,82.255348 134.899780,82.255348 
	C134.899780,82.255348 134.893173,81.956383 134.975769,81.831711 
	C139.281204,79.050308 135.081772,74.841949 136.945160,71.122025 
	C136.996429,70.329979 136.996887,70.157082 136.997345,69.984184 
z"/>
<path fill="#E4D2AB" opacity="1.000000" stroke="none" 
	d="
M127.941628,110.901039 
	C128.921753,112.342094 129.901886,113.783150 130.928040,115.934868 
	C130.972610,117.130859 130.971161,117.616196 130.716705,118.167732 
	C130.291656,118.262100 130.119598,118.290268 129.947556,118.318428 
	C129.480179,118.330078 129.012787,118.341721 128.149979,118.098190 
	C127.484245,117.587120 127.213943,117.331215 126.929955,116.770836 
	C126.618553,115.977242 126.320847,115.488121 125.969772,114.655251 
	C124.959129,113.963882 124.001839,113.616264 122.762177,113.217278 
	C122.294342,113.118820 122.108887,113.071732 121.923447,113.024643 
	C123.398781,111.776169 124.874115,110.527695 126.670120,109.139221 
	C126.990784,108.999229 126.968483,109.009895 126.986496,109.300446 
	C127.316879,110.027679 127.629250,110.464363 127.941628,110.901039 
z"/>
<path fill="#E4D2AB" opacity="1.000000" stroke="none" 
	d="
M145.287567,114.219086 
	C145.026459,113.905151 145.022339,113.699387 145.307846,113.167740 
	C146.008713,111.021217 146.419968,109.200584 147.119202,107.567856 
	C147.937164,108.177620 148.467178,108.599487 148.998901,109.009689 
	C149.000626,108.998032 148.977859,109.004990 148.955566,109.279053 
	C149.073593,109.806129 149.213898,110.059151 149.354202,110.312180 
	C149.581696,109.870659 149.809174,109.429146 150.019943,108.989075 
	C150.003220,108.990532 149.991852,109.023697 149.991852,109.023697 
	C151.657684,110.123581 153.323532,111.223465 154.753632,112.732719 
	C154.332596,113.183640 154.147293,113.225189 153.961990,113.266739 
	C153.526352,113.204269 153.090714,113.141800 152.140594,112.840012 
	C151.109833,113.125496 150.593582,113.650299 150.077316,114.175110 
	C149.492081,114.273407 148.906845,114.371712 147.901276,114.776993 
	C147.305084,115.134933 147.129227,115.185883 146.953354,115.236839 
	C146.483749,114.933647 146.014160,114.630455 145.287567,114.219086 
z"/>
<path fill="#FAF6EF" opacity="1.000000" stroke="none" 
	d="
M137.006744,69.596199 
	C136.996887,70.157082 136.996429,70.329979 136.963470,70.760361 
	C132.550491,68.998161 136.893677,66.233833 136.322464,63.889000 
	C137.750259,63.889000 139.178055,63.889000 140.583374,63.889000 
	C139.062195,66.157272 138.039169,67.682739 137.006744,69.596199 
z"/>
<path fill="#E0CB9C" opacity="1.000000" stroke="none" 
	d="
M141.979248,120.983887 
	C139.629196,121.302567 137.279144,121.621239 134.483688,121.602051 
	C134.026611,120.843468 134.014938,120.422752 134.007355,119.745728 
	C133.999573,119.318939 133.987686,119.148453 134.194885,118.736580 
	C135.576828,118.032501 136.739685,117.569817 137.908325,117.423225 
	C137.737122,118.637733 137.560104,119.536148 137.383072,120.434555 
	C137.914383,120.353989 138.445694,120.273430 139.357605,120.178024 
	C140.499344,120.175224 141.260483,120.187279 141.992462,120.394470 
	C141.963318,120.589607 141.979248,120.983887 141.979248,120.983887 
z"/>
<path fill="#FBF8F1" opacity="1.000000" stroke="none" 
	d="
M137.902527,117.107140 
	C136.739685,117.569817 135.576828,118.032501 134.206650,118.748184 
	C133.999313,119.001175 134.020065,119.026321 134.080597,118.653877 
	C134.026978,117.540375 133.912827,116.799309 133.798676,116.058250 
	C136.646210,115.704483 139.493744,115.350716 142.677704,115.026932 
	C143.006470,115.497528 142.998825,115.938148 142.562378,116.697342 
	C140.723221,117.046333 139.312866,117.076736 137.902527,117.107140 
z"/>
<path fill="#FBF8F1" opacity="1.000000" stroke="none" 
	d="
M154.019470,113.602425 
	C154.147293,113.225189 154.332596,113.183640 154.797150,113.084076 
	C159.095001,115.119034 156.935471,117.319672 155.019684,120.178436 
	C154.644592,117.695557 154.360779,115.816833 154.019470,113.602425 
z"/>
<path fill="#FBF8F1" opacity="1.000000" stroke="none" 
	d="
M121.663635,113.150909 
	C122.108887,113.071732 122.294342,113.118820 122.751770,113.561218 
	C123.005814,114.654854 122.987877,115.353188 122.798515,116.146378 
	C122.406189,116.386322 122.235474,116.576439 122.114937,116.811592 
	C122.305016,117.689201 122.495094,118.566803 122.685173,119.444412 
	C120.781540,117.600159 118.039963,115.869370 121.663635,113.150909 
z"/>
<path fill="#EDE2CA" opacity="1.000000" stroke="none" 
	d="
M137.908325,117.423233 
	C139.312866,117.076736 140.723221,117.046333 142.553864,117.028183 
	C142.832870,118.212723 142.691605,119.385017 142.264801,120.770599 
	C141.979248,120.983887 141.963318,120.589607 141.836395,120.092384 
	C140.798645,119.794403 139.887833,119.993645 138.977005,120.192879 
	C138.445694,120.273430 137.914383,120.353989 137.383072,120.434555 
	C137.560104,119.536148 137.737122,118.637733 137.908325,117.423233 
z"/>
<path fill="#FBF8F1" opacity="1.000000" stroke="none" 
	d="
M133.987549,118.989578 
	C133.987686,119.148453 133.999573,119.318939 133.719757,119.853592 
	C132.628235,120.807411 131.828384,121.397072 131.028549,121.986740 
	C130.681015,120.988548 130.333496,119.990356 129.966766,118.655296 
	C130.119598,118.290268 130.291656,118.262100 131.033478,118.226295 
	C132.408875,118.487877 133.214462,118.757103 134.020065,119.026321 
	C134.020065,119.026321 133.999313,119.001175 133.987549,118.989578 
z"/>
<path fill="#FDFCF9" opacity="1.000000" stroke="none" 
	d="
M124.933990,79.834480 
	C125.019577,82.646217 125.019577,85.242287 125.019577,87.838356 
	C124.690117,87.817627 124.360664,87.796898 124.031204,87.776161 
	C124.031204,85.139923 124.031204,82.503693 124.095688,79.440742 
	C124.453506,79.142891 124.682915,79.344482 124.933990,79.834480 
z"/>
<path fill="#EDE2CA" opacity="1.000000" stroke="none" 
	d="
M122.444946,116.893532 
	C122.235474,116.576439 122.406189,116.386322 123.124130,116.109695 
	C124.421829,115.651764 125.222481,115.325378 126.023132,114.998993 
	C126.320847,115.488121 126.618553,115.977242 126.716415,116.861374 
	C126.257004,117.451134 126.086510,117.705605 126.005089,118.019798 
	C124.928383,117.671684 123.851669,117.323578 122.444946,116.893532 
z"/>
<path fill="#E0CB9C" opacity="1.000000" stroke="none" 
	d="
M127.011169,105.055115 
	C127.426689,104.127502 127.892273,103.582565 128.728577,103.355011 
	C128.763519,104.804482 128.427704,105.936577 127.829697,107.039711 
	C127.391899,107.000748 127.216316,106.990730 127.040726,106.980705 
	C127.047554,106.466393 127.054390,105.952087 127.011169,105.055115 
z"/>
<path fill="#FDFCF9" opacity="1.000000" stroke="none" 
	d="
M152.632233,79.140045 
	C152.825836,81.458961 152.825836,83.902306 152.825836,86.345650 
	C152.548706,86.352898 152.271591,86.360146 151.994461,86.367393 
	C151.994461,84.544304 151.994461,82.721214 151.987518,80.474007 
	C152.050842,79.739998 152.203522,79.478195 152.632233,79.140045 
z"/>
<path fill="#E8DABA" opacity="1.000000" stroke="none" 
	d="
M149.985657,104.006134 
	C149.985641,104.006126 150.076828,104.387878 150.061035,104.583145 
	C150.031982,105.910904 150.018707,107.043404 149.998642,108.599792 
	C149.991852,109.023697 150.003220,108.990532 149.754959,108.981667 
	C149.330414,108.983528 149.154144,108.994255 148.977859,109.004990 
	C148.977859,109.004990 149.000626,108.998032 148.981842,108.684814 
	C148.665939,107.561478 148.368851,106.751350 148.311554,105.796783 
	C149.029465,105.103607 149.507553,104.554871 149.985657,104.006134 
z"/>
<path fill="#C19413" opacity="1.000000" stroke="none" 
	d="
M120.172592,108.940689 
	C119.767052,108.168877 119.646172,107.384163 119.525284,106.599442 
	C120.016815,107.116989 120.508347,107.634529 121.006409,108.476578 
	C120.827705,108.843315 120.642479,108.885551 120.172592,108.940689 
z"/>
<path fill="#FBF8F1" opacity="1.000000" stroke="none" 
	d="
M150.250809,114.376526 
	C150.593582,113.650299 151.109833,113.125496 151.809616,112.840652 
	C151.470184,113.579727 150.947250,114.078842 150.250809,114.376526 
z"/>
<path fill="#BF9114" opacity="1.000000" stroke="none" 
	d="
M127.982063,82.110840 
	C127.688118,82.953659 127.439255,83.669548 127.190384,84.385437 
	C126.929276,84.373474 126.668167,84.361511 126.407059,84.349541 
	C126.285965,83.372375 126.164864,82.395210 126.083107,81.058617 
	C126.122452,80.699188 126.530731,80.859001 126.791229,81.231812 
	C127.383133,81.641457 127.714531,81.678307 128.045929,81.715157 
	C128.045929,81.715157 128.027145,81.983910 127.982063,82.110840 
z"/>
<path fill="#FAF6EF" opacity="1.000000" stroke="none" 
	d="
M146.992157,115.509064 
	C147.129227,115.185883 147.305084,115.134933 147.753265,115.047089 
	C148.339203,115.478836 148.652832,115.947472 148.711853,116.728752 
	C148.278397,117.068970 148.099518,117.096542 147.920624,117.124123 
	C147.624069,116.676514 147.327530,116.228905 146.992157,115.509064 
z"/>
<path fill="#E8DABA" opacity="1.000000" stroke="none" 
	d="
M145.869354,81.822861 
	C145.406372,82.281067 144.800034,82.484665 144.082397,82.419044 
	C144.556061,81.955963 145.141052,81.762108 145.869354,81.822861 
z"/>
<path fill="#FBF8F1" opacity="1.000000" stroke="none" 
	d="
M126.123207,118.228874 
	C126.086510,117.705605 126.257004,117.451134 126.730103,117.165848 
	C127.213943,117.331215 127.484245,117.587120 127.797974,118.130493 
	C127.308029,118.424622 126.774681,118.431290 126.123207,118.228874 
z"/>
<path fill="#E8DABA" opacity="1.000000" stroke="none" 
	d="
M132.862137,81.689522 
	C132.477615,82.205673 131.963959,82.489044 131.152069,82.642670 
	C131.480240,82.160858 132.106628,81.808792 132.862137,81.689522 
z"/>
<path fill="#EDE2CA" opacity="1.000000" stroke="none" 
	d="
M131.409637,121.988014 
	C131.828384,121.397072 132.628235,120.807411 133.715683,120.109894 
	C134.014938,120.422752 134.026611,120.843468 134.059357,121.577850 
	C133.317200,121.924110 132.553955,121.956703 131.409637,121.988014 
z"/>
<path fill="#FDFCF9" opacity="1.000000" stroke="none" 
	d="
M119.961182,76.540108 
	C119.821121,76.856148 119.637909,76.901627 119.171524,76.949684 
	C118.797546,76.464844 118.706741,75.977417 118.615929,75.489990 
	C119.049965,75.749840 119.484001,76.009697 119.961182,76.540108 
z"/>
<path fill="#FAF6EF" opacity="1.000000" stroke="none" 
	d="
M145.618134,117.769852 
	C145.474243,118.209106 145.194626,118.477119 144.895813,118.721680 
	C144.882797,118.732346 144.693649,118.527809 144.586548,118.423523 
	C144.883972,118.147095 145.181396,117.870659 145.618134,117.769852 
z"/>
<path fill="#C19414" opacity="1.000000" stroke="none" 
	d="
M158.108582,111.234482 
	C158.382248,110.984329 158.747772,110.974724 159.387527,110.970154 
	C159.634537,111.367767 159.607330,111.760345 159.580124,112.152924 
	C159.120239,111.926956 158.660339,111.700996 158.108582,111.234482 
z"/>
<path fill="#FDFCF9" opacity="1.000000" stroke="none" 
	d="
M133.979309,77.020981 
	C133.249969,76.966064 132.520630,76.911156 131.791290,76.856239 
	C131.816727,76.645180 131.842163,76.434113 131.867584,76.223053 
	C132.469742,76.319687 133.071899,76.416321 133.836105,76.757446 
	C133.998154,77.001945 133.979309,77.020981 133.979309,77.020981 
z"/>
<path fill="#FBF8F1" opacity="1.000000" stroke="none" 
	d="
M146.708160,121.158821 
	C146.422287,121.503029 146.167480,121.624252 145.912659,121.745483 
	C145.839462,121.500893 145.766266,121.256302 145.693069,121.011719 
	C146.041779,120.986427 146.390503,120.961136 146.708160,121.158821 
z"/>
<path fill="#C19413" opacity="1.000000" stroke="none" 
	d="
M117.248367,111.208412 
	C117.719734,110.980698 118.091599,110.983665 118.742188,110.997528 
	C118.396896,111.151978 117.772873,111.295532 117.248367,111.208412 
z"/>
<path fill="#E8DABA" opacity="1.000000" stroke="none" 
	d="
M129.554245,82.803085 
	C129.758713,83.363464 129.969650,83.945786 130.007935,84.800278 
	C129.584061,84.997696 129.332870,84.922943 129.081680,84.848190 
	C129.125046,84.371017 129.168396,83.893852 129.401917,83.108986 
	C129.592102,82.801292 129.560715,82.825020 129.554245,82.803085 
z"/>
<path fill="#FBF8F1" opacity="1.000000" stroke="none" 
	d="
M152.383667,119.698128 
	C152.559219,119.834671 152.586548,120.072708 152.613876,120.310738 
	C152.487732,120.140366 152.361588,119.969994 152.383667,119.698128 
z"/>
<path fill="#FDFCF9" opacity="1.000000" stroke="none" 
	d="
M134.008682,76.994232 
	C134.264511,77.341072 134.512817,77.693764 134.738876,78.060173 
	C134.744919,78.069977 134.509842,78.228554 134.387222,78.317749 
	C134.263824,78.045097 134.140427,77.772446 133.998169,77.260384 
	C133.979309,77.020981 133.998154,77.001945 134.008682,76.994232 
z"/>
<path fill="#E9DBBD" opacity="1.000000" stroke="none" 
	d="
M127.020897,107.320053 
	C127.216316,106.990730 127.391899,107.000748 127.785599,107.331390 
	C127.658630,108.104652 127.313560,108.557281 126.968491,109.009903 
	C126.968483,109.009895 126.990784,108.999229 126.996445,109.008591 
	C127.001762,108.565102 127.001419,108.112259 127.020897,107.320053 
z"/>
<path fill="#FBF8F1" opacity="1.000000" stroke="none" 
	d="
M147.954483,117.372818 
	C148.099518,117.096542 148.278397,117.068970 148.728271,117.026192 
	C148.849838,117.459557 148.700378,117.908127 148.550934,118.356705 
	C148.363403,118.111641 148.175873,117.866577 147.954483,117.372818 
z"/>
<path fill="#C19414" opacity="1.000000" stroke="none" 
	d="
M158.708618,87.733475 
	C158.326508,87.800629 158.231750,87.557365 158.483231,87.142395 
	C158.600693,87.047333 158.767181,87.499687 158.708618,87.733475 
z"/>
<path fill="#FAF6EF" opacity="1.000000" stroke="none" 
	d="
M142.436707,66.539261 
	C142.395905,66.475616 142.477509,66.602913 142.436707,66.539261 
z"/>
<path fill="#FDFCF9" opacity="1.000000" stroke="none" 
	d="
M127.895439,81.549919 
	C127.714531,81.678307 127.383133,81.641457 126.995041,81.312561 
	C127.241341,81.066299 127.510208,81.187698 127.895439,81.549919 
z"/>
<path fill="#C19413" opacity="1.000000" stroke="none" 
	d="
M118.319595,87.272842 
	C118.706604,87.243500 118.772530,87.491325 118.476883,87.876724 
	C118.353508,87.961700 118.236710,87.497414 118.319595,87.272842 
z"/>
<path fill="#FDFCF9" opacity="1.000000" stroke="none" 
	d="
M149.878326,81.085007 
	C149.908661,81.309486 149.728485,81.587944 149.289886,81.789642 
	C149.179520,81.450539 149.391617,81.259239 149.878326,81.085007 
z"/>
<path fill="#C19413" opacity="1.000000" stroke="none" 
	d="
M117.650162,107.695511 
	C117.918594,107.823982 117.916275,108.145767 117.688477,108.672287 
	C117.533638,108.548378 117.505775,108.218971 117.650162,107.695511 
z"/>
<path fill="#C19414" opacity="1.000000" stroke="none" 
	d="
M159.522141,108.705521 
	C159.224380,108.771233 159.143448,108.573036 159.272324,108.226135 
	C159.340607,108.131630 159.597443,108.495811 159.522141,108.705521 
z"/>
<path fill="#C19414" opacity="1.000000" stroke="none" 
	d="
M158.468979,84.710236 
	C158.204437,84.734406 158.090637,84.547356 158.018860,84.158875 
	C158.266388,84.093399 158.452667,84.273926 158.468979,84.710236 
z"/>
<path fill="#FDFCF9" opacity="1.000000" stroke="none" 
	d="
M148.071747,105.941223 
	C148.368851,106.751350 148.665939,107.561478 148.980118,108.696480 
	C148.467178,108.599487 147.937164,108.177620 147.080353,107.505188 
	C146.753525,107.254623 146.506393,107.012581 146.306152,106.849678 
	C145.727448,106.814217 145.348984,106.941666 144.913208,107.240387 
	C144.749603,107.630013 144.613708,107.828049 144.277618,107.627625 
	C144.106827,106.154724 144.106644,105.059990 144.122635,103.633194 
	C144.071426,102.862862 144.004028,102.424583 143.947495,101.658508 
	C143.941879,100.894249 143.925415,100.457771 144.032578,99.794678 
	C144.441284,99.381393 144.726349,99.194725 145.002090,99.001923 
	C144.992752,98.995796 144.973236,98.984818 145.175858,99.275330 
	C146.045715,99.560524 146.712952,99.555214 147.380188,99.549911 
	C147.595093,100.432487 147.810013,101.315056 147.971115,102.917099 
	C147.968796,104.404793 148.020264,105.173004 148.071747,105.941223 
z"/>
<path fill="#C49B21" opacity="1.000000" stroke="none" 
	d="
M141.268661,82.065659 
	C141.268661,82.065659 141.683533,82.165565 141.892090,82.210884 
	C142.086365,85.377731 141.902756,88.512566 142.146240,91.613853 
	C142.235977,92.756920 143.333054,93.820892 144.392395,95.297119 
	C144.831253,96.377945 144.848419,97.082596 144.564240,97.693436 
	C143.263000,97.304527 142.263107,97.009430 141.245392,96.267212 
	C141.241257,91.235283 141.254959,86.650467 141.268661,82.065659 
z"/>
<path fill="#BE8F10" opacity="1.000000" stroke="none" 
	d="
M153.568939,102.190063 
	C152.832535,101.270760 152.328522,100.084938 151.824493,98.899124 
	C152.368210,98.751282 152.911911,98.603439 153.455627,98.455597 
	C153.570862,99.611580 153.686096,100.767563 153.568939,102.190063 
z"/>
<path fill="#BE8F10" opacity="1.000000" stroke="none" 
	d="
M149.040222,94.624634 
	C149.570358,94.302803 150.472580,94.237877 150.486465,94.321144 
	C150.655457,95.334091 150.693771,96.368828 149.779556,97.603127 
	C149.519562,96.718887 149.259567,95.834641 149.040222,94.624634 
z"/>
<path fill="#C19414" opacity="1.000000" stroke="none" 
	d="
M155.325653,93.930374 
	C155.984085,94.513298 156.440964,95.329079 156.897842,96.144867 
	C156.480377,96.303322 156.062927,96.461769 155.645462,96.620224 
	C155.471680,95.801224 155.297882,94.982231 155.325653,93.930374 
z"/>
<path fill="#FDFCF9" opacity="1.000000" stroke="none" 
	d="
M144.865570,97.787239 
	C144.848419,97.082596 144.831253,96.377945 144.788513,95.321823 
	C145.173309,95.100983 145.583694,95.231621 146.060699,95.946655 
	C146.426163,96.788696 146.724960,97.046326 147.001709,97.427338 
	C146.979675,97.550720 146.950058,97.799629 147.072571,98.189865 
	C147.376923,98.783287 147.558777,98.986473 147.740616,99.189651 
	C147.740616,99.189651 147.623245,99.448799 147.138123,99.281723 
	C146.093063,99.071373 145.533157,99.028091 144.973236,98.984818 
	C144.973236,98.984818 144.992752,98.995796 145.003235,98.692245 
	C144.964340,98.188210 144.914963,97.987724 144.865570,97.787239 
z"/>
<path fill="#FBF8F1" opacity="1.000000" stroke="none" 
	d="
M146.950058,97.799629 
	C146.950058,97.799629 146.979675,97.550720 147.011887,97.085693 
	C147.017197,96.396347 146.990311,96.172028 146.963409,95.947708 
	C147.015182,94.841743 147.066940,93.735779 147.118698,92.629822 
	C147.401855,92.642654 147.685028,92.655495 147.968185,92.668335 
	C147.968185,94.162361 147.968185,95.656387 147.682465,97.548668 
	C147.396744,97.946922 146.950058,97.799629 146.950058,97.799629 
z"/>
<path fill="#E0CB9C" opacity="1.000000" stroke="none" 
	d="
M148.311554,105.796783 
	C148.020264,105.173004 147.968796,104.404793 148.008972,103.261322 
	C148.669022,103.065369 149.237442,103.244675 149.895752,103.715057 
	C149.507553,104.554871 149.029465,105.103607 148.311554,105.796783 
z"/>
<path fill="#C19414" opacity="1.000000" stroke="none" 
	d="
M156.353821,84.874832 
	C156.640305,85.155281 156.759338,85.573769 156.819000,86.000549 
	C156.829361,86.074646 156.588913,86.183800 156.464310,86.276764 
	C156.364960,85.856400 156.265594,85.436043 156.353821,84.874832 
z"/>
<path fill="#E6D6B2" opacity="1.000000" stroke="none" 
	d="
M145.175858,99.275330 
	C145.533157,99.028091 146.093063,99.071373 147.009445,99.342346 
	C147.365906,99.570045 147.311920,99.548660 147.346054,99.549286 
	C146.712952,99.555214 146.045715,99.560524 145.175858,99.275330 
z"/>
<path fill="#BE8F10" opacity="1.000000" stroke="none" 
	d="
M150.611099,84.296005 
	C150.438309,84.160423 150.412094,83.923363 150.385864,83.686310 
	C150.509796,83.855721 150.633743,84.025131 150.611099,84.296005 
z"/>
<path fill="#E6D6B2" opacity="1.000000" stroke="none" 
	d="
M147.072571,98.189865 
	C146.950058,97.799629 147.396744,97.946922 147.631912,97.948563 
	C147.999664,98.227226 148.033142,98.515724 147.854050,99.002670 
	C147.558777,98.986473 147.376923,98.783287 147.072571,98.189865 
z"/>
<path fill="#E6D6B2" opacity="1.000000" stroke="none" 
	d="
M146.732178,96.019051 
	C146.990311,96.172028 147.017197,96.396347 147.033936,96.962311 
	C146.724960,97.046326 146.426163,96.788696 146.085449,96.231583 
	C146.043549,95.932114 146.500931,96.090393 146.732178,96.019051 
z"/>
<path fill="#C19414" opacity="1.000000" stroke="none" 
	d="
M157.464020,107.449707 
	C157.524612,107.411858 157.403412,107.487564 157.464020,107.449707 
z"/>
<path fill="#FDFCF9" opacity="1.000000" stroke="none" 
	d="
M126.986496,109.300446 
	C127.313560,108.557281 127.658630,108.104652 128.047806,107.360352 
	C128.427704,105.936577 128.763519,104.804482 129.024689,103.307175 
	C128.990631,102.225288 129.031219,101.508629 129.455536,100.439415 
	C130.568207,99.719864 131.297134,99.352867 132.016663,98.990936 
	C132.007263,98.996010 131.988846,99.006676 132.265747,99.200172 
	C132.715698,100.266876 132.888763,101.140091 132.996048,102.432480 
	C133.012833,104.267563 133.095398,105.683464 133.006729,107.277313 
	C131.870926,107.603600 130.906326,107.751930 129.711212,108.095657 
	C129.321243,108.864212 129.161789,109.437370 128.760651,110.084686 
	C128.328735,110.430817 128.138504,110.702797 127.948273,110.974777 
	C127.948273,110.974770 127.982635,110.937027 127.962128,110.919037 
	C127.629250,110.464363 127.316879,110.027679 126.986496,109.300446 
z"/>
<path fill="#C49B21" opacity="1.000000" stroke="none" 
	d="
M134.912872,82.699776 
	C134.899780,82.255348 135.317902,82.165176 135.544052,82.572205 
	C135.772766,84.948372 136.052643,86.966667 135.714340,88.875381 
	C135.176056,91.912254 134.225662,94.876083 133.234131,97.822495 
	C132.728317,97.850189 132.435059,97.863625 132.148560,97.458694 
	C132.184464,96.392120 132.210709,95.681335 132.236954,94.970551 
	C133.138504,93.965538 134.679459,93.040680 134.817444,91.939957 
	C135.179840,89.048935 134.931183,86.081306 134.912872,82.699776 
z"/>
<path fill="#FDFCF9" opacity="1.000000" stroke="none" 
	d="
M132.068558,94.738953 
	C132.210709,95.681335 132.184464,96.392120 132.072678,97.752045 
	C131.987701,98.603020 131.988281,98.804848 131.988846,99.006676 
	C131.988846,99.006676 132.007263,98.996010 131.720108,98.950104 
	C130.947372,98.593575 130.461807,98.282959 129.976227,97.972343 
	C130.043839,97.819275 130.111435,97.666214 130.483643,97.159470 
	C130.984482,96.543037 131.039490,96.253456 130.953308,95.937042 
	C131.268936,95.460480 131.584549,94.983917 132.068558,94.738953 
z"/>
<path fill="#BF9114" opacity="1.000000" stroke="none" 
	d="
M126.910263,95.286797 
	C126.796944,94.253319 126.729904,93.532959 126.662865,92.812607 
	C127.022758,92.764648 127.382652,92.716690 127.742538,92.668739 
	C127.813850,93.955711 127.885162,95.242683 127.956474,96.529655 
	C127.623161,96.219749 127.289848,95.909836 126.910263,95.286797 
z"/>
<path fill="#C19413" opacity="1.000000" stroke="none" 
	d="
M120.485008,83.665466 
	C121.061028,83.952438 121.416222,84.457397 121.771408,84.962357 
	C121.407791,85.154167 121.044182,85.345978 120.680565,85.537788 
	C120.541763,84.986343 120.402969,84.434906 120.485008,83.665466 
z"/>
<path fill="#C49B21" opacity="1.000000" stroke="none" 
	d="
M131.425018,90.493851 
	C130.940216,90.435806 130.645172,90.195976 130.350128,89.956146 
	C130.544266,89.769409 130.738388,89.582672 130.932526,89.395935 
	C131.159943,89.701309 131.387360,90.006683 131.425018,90.493851 
z"/>
<path fill="#C49B21" opacity="1.000000" stroke="none" 
	d="
M129.044617,85.138885 
	C129.332870,84.922943 129.584061,84.997696 130.205566,85.219971 
	C130.279160,86.017082 129.982483,86.666672 129.144409,88.501656 
	C129.060013,86.606781 129.033783,86.018181 129.044617,85.138885 
z"/>
<path fill="#E6D6B2" opacity="1.000000" stroke="none" 
	d="
M129.665680,98.089630 
	C130.461807,98.282959 130.947372,98.593575 131.729507,98.945023 
	C131.297134,99.352867 130.568207,99.719864 129.510986,100.084671 
	C129.240158,99.457291 129.297638,98.832100 129.665680,98.089630 
z"/>
<path fill="#BD8D0C" opacity="1.000000" stroke="none" 
	d="
M124.886688,100.267769 
	C124.784981,100.750931 124.642212,101.004356 124.499451,101.257782 
	C124.357040,101.004593 124.047592,100.686996 124.114151,100.514389 
	C124.199020,100.294304 124.587830,100.191422 124.886688,100.267769 
z"/>
<path fill="#E6D6B2" opacity="1.000000" stroke="none" 
	d="
M130.775085,96.081039 
	C131.039490,96.253456 130.984482,96.543037 130.604095,96.939262 
	C130.286743,96.750069 130.345718,96.467506 130.775085,96.081039 
z"/>
<path fill="#BF910B" opacity="1.000000" stroke="none" 
	d="
M142.153931,111.034401 
	C140.047638,111.028053 137.941345,111.021713 135.424728,110.609894 
	C134.989883,109.462700 134.965378,108.720993 135.134216,107.652588 
	C135.667892,105.598137 136.008209,103.870361 136.545517,101.921112 
	C136.826904,101.118546 136.911285,100.537468 137.383087,99.958588 
	C138.515945,99.949966 139.261368,99.939148 140.001984,100.197876 
	C140.046158,100.640335 140.095139,100.813248 140.134674,101.203949 
	C140.169876,101.736984 140.337189,101.960258 140.709534,102.414108 
	C140.946655,103.152054 141.101425,103.567467 141.206482,104.350647 
	C141.535126,105.843056 141.913483,106.967682 142.284012,108.460709 
	C142.235428,109.564217 142.194672,110.299309 142.153931,111.034401 
z"/>
<path fill="#E0CB9C" opacity="1.000000" stroke="none" 
	d="
M134.940857,107.979279 
	C134.965378,108.720993 134.989883,109.462700 135.055328,110.573120 
	C133.511581,111.130707 131.926910,111.319572 130.377518,111.067078 
	C130.255783,109.717224 130.098755,108.808746 129.941742,107.900261 
	C130.906326,107.751930 131.870926,107.603600 133.233185,107.370178 
	C134.067535,107.516487 134.504196,107.747887 134.940857,107.979279 
z"/>
<path fill="#FBF8F1" opacity="1.000000" stroke="none" 
	d="
M142.424698,111.142532 
	C142.194672,110.299309 142.235428,109.564217 142.640747,108.449814 
	C143.486298,108.048927 143.967239,108.027351 144.448196,108.005775 
	C144.613708,107.828049 144.749603,107.630013 145.298553,107.260696 
	C145.996277,107.077339 146.251343,107.044960 146.506393,107.012581 
	C146.506393,107.012581 146.753525,107.254623 146.792374,107.317291 
	C146.419968,109.200584 146.008713,111.021217 145.310394,112.859039 
	C144.247375,112.334381 143.471420,111.792519 142.424698,111.142532 
z"/>
<path fill="#E0CB9C" opacity="1.000000" stroke="none" 
	d="
M134.080597,118.653877 
	C133.214462,118.757103 132.408875,118.487877 131.286484,118.160088 
	C130.971161,117.616196 130.972610,117.130859 131.000702,116.281349 
	C131.721649,115.952515 132.415955,115.987862 133.454468,116.040733 
	C133.912827,116.799309 134.026978,117.540375 134.080597,118.653877 
z"/>
<path fill="#E4D2AB" opacity="1.000000" stroke="none" 
	d="
M129.711212,108.095657 
	C130.098755,108.808746 130.255783,109.717224 130.218658,110.812988 
	C129.853302,110.999786 129.682098,110.999313 129.253342,110.751587 
	C128.995773,110.504333 129.002335,110.010529 129.002335,110.010529 
	C129.161789,109.437370 129.321243,108.864212 129.711212,108.095657 
z"/>
<path fill="#E0CB9C" opacity="1.000000" stroke="none" 
	d="
M128.760651,110.084686 
	C129.002335,110.010529 128.995773,110.504333 128.996552,110.751236 
	C128.822556,110.997398 128.647781,110.996666 128.210648,110.985359 
	C128.138504,110.702797 128.328735,110.430817 128.760651,110.084686 
z"/>
<path fill="#FEFEFD" opacity="1.000000" stroke="none" 
	d="
M140.006790,99.928329 
	C139.261368,99.939148 138.515945,99.949966 137.349258,99.569710 
	C135.768524,98.742691 134.609039,98.306747 133.449570,97.870811 
	C134.225662,94.876083 135.176056,91.912254 135.714340,88.875381 
	C136.052643,86.966667 135.772766,84.948372 135.751587,82.520531 
	C137.347702,81.971352 138.962448,81.880875 140.922928,81.928032 
	C141.254959,86.650467 141.241257,91.235283 141.073181,96.578957 
	C140.614822,98.201324 140.310806,99.064827 140.006790,99.928329 
z"/>
<path fill="#FFFFFF" opacity="1.000000" stroke="none" 
	d="
M125.969772,114.655243 
	C125.222481,115.325378 124.421829,115.651764 123.295563,116.014832 
	C122.987877,115.353188 123.005814,114.654854 123.034149,113.612587 
	C124.001839,113.616264 124.959129,113.963882 125.969772,114.655243 
z"/>
<path fill="#FDFCF9" opacity="1.000000" stroke="none" 
	d="
M148.955566,109.279053 
	C149.154144,108.994255 149.330414,108.983528 149.771683,108.980209 
	C149.809174,109.429146 149.581696,109.870659 149.354202,110.312180 
	C149.213898,110.059151 149.073593,109.806129 148.955566,109.279053 
z"/>
<path fill="#FFFFFF" opacity="1.000000" stroke="none" 
	d="
M139.357605,120.178024 
	C139.887833,119.993645 140.798645,119.794403 141.865540,119.897247 
	C141.260483,120.187279 140.499344,120.175224 139.357605,120.178024 
z"/>
<path fill="#E9DBBD" opacity="1.000000" stroke="none" 
	d="
M140.001984,100.197868 
	C140.310806,99.064827 140.614822,98.201324 141.091034,97.026077 
	C142.263107,97.009430 143.263000,97.304527 144.564224,97.693436 
	C144.914963,97.987724 144.964340,98.188210 145.012573,98.698364 
	C144.726349,99.194725 144.441284,99.381393 143.708130,99.818268 
	C142.221405,100.374374 141.182770,100.680275 140.144135,100.986160 
	C140.095139,100.813248 140.046158,100.640335 140.001984,100.197868 
z"/>
<path fill="#E6D6B2" opacity="1.000000" stroke="none" 
	d="
M144.277618,107.627625 
	C143.967239,108.027351 143.486298,108.048927 142.648590,108.081406 
	C141.913483,106.967682 141.535126,105.843056 141.561310,104.352829 
	C142.679382,103.979904 143.392914,103.972572 144.106445,103.965248 
	C144.106644,105.059990 144.106827,106.154724 144.277618,107.627625 
z"/>
<path fill="#E9DBBD" opacity="1.000000" stroke="none" 
	d="
M144.122635,103.633194 
	C143.392914,103.972572 142.679382,103.979904 141.611023,103.985046 
	C141.101425,103.567467 140.946655,103.152054 141.126266,102.388885 
	C142.285980,102.022850 143.111298,102.004570 143.936630,101.986298 
	C144.004028,102.424583 144.071426,102.862862 144.122635,103.633194 
z"/>
<path fill="#E6D6B2" opacity="1.000000" stroke="none" 
	d="
M143.947495,101.658508 
	C143.111298,102.004570 142.285980,102.022850 141.043915,102.066345 
	C140.337189,101.960258 140.169876,101.736984 140.134674,101.203949 
	C141.182770,100.680275 142.221405,100.374374 143.584488,100.044891 
	C143.925415,100.457771 143.941879,100.894249 143.947495,101.658508 
z"/>
<path fill="#E0CB9C" opacity="1.000000" stroke="none" 
	d="
M146.306152,106.849678 
	C146.251343,107.044960 145.996277,107.077339 145.355865,107.089417 
	C145.348984,106.941666 145.727448,106.814217 146.306152,106.849678 
z"/>
<path fill="#E9DBBD" opacity="1.000000" stroke="none" 
	d="
M133.234131,97.822495 
	C134.609039,98.306747 135.768524,98.742691 136.961823,99.567505 
	C136.911285,100.537468 136.826904,101.118546 136.133514,101.877014 
	C134.703613,102.040695 133.882706,102.026993 133.061813,102.013290 
	C132.888763,101.140091 132.715698,100.266876 132.265747,99.200172 
	C131.988281,98.804848 131.987701,98.603020 132.063019,98.107834 
	C132.435059,97.863625 132.728317,97.850189 133.234131,97.822495 
z"/>
<path fill="#E6D6B2" opacity="1.000000" stroke="none" 
	d="
M132.996048,102.432480 
	C133.882706,102.026993 134.703613,102.040695 135.936523,102.098495 
	C136.008209,103.870361 135.667892,105.598137 135.134216,107.652588 
	C134.504196,107.747887 134.067535,107.516487 133.404419,107.192230 
	C133.095398,105.683464 133.012833,104.267563 132.996048,102.432480 
z"/>
</svg>