<svg version="1.1" id="Layer_1" xmlns="http://www.w3.org/2000/svg" xmlns:xlink="http://www.w3.org/1999/xlink" x="0px" y="0px"
	 width="100%" viewBox="0 0 274 184" enable-background="new 0 0 274 184" xml:space="preserve">
<path fill="#F8F6F6" opacity="1.000000" stroke="none" 
	d="
M92.000000,1.000000 
	C152.951447,1.000000 213.902893,1.000000 274.927185,1.000000 
	C274.927185,62.235889 274.927185,123.471886 274.927185,185.000000 
	C214.312744,185.000000 153.625031,185.000000 92.469315,184.791138 
	C92.001312,184.582291 92.003387,184.164581 92.219421,184.088013 
	C92.435463,184.011444 92.880966,183.903442 93.356873,183.932983 
	C123.591866,183.939590 153.350952,183.916656 183.570007,183.936356 
	C212.169693,183.985992 240.309433,184.006866 268.449066,183.962830 
	C270.006714,183.960388 271.563477,183.419937 273.451965,182.849609 
	C273.854279,181.910980 273.987335,181.252640 273.987457,180.594284 
	C273.998138,122.588501 274.003845,64.582710 273.964050,6.576952 
	C273.963196,5.355500 273.428802,4.134413 272.876770,2.566406 
	C243.366211,2.151276 214.122238,2.075905 184.878220,2.057561 
	C184.194443,2.057132 183.510269,2.697859 182.608521,3.027001 
	C182.390747,3.014474 181.955551,2.984001 181.680328,2.672841 
	C180.757187,2.243917 180.109344,2.023607 179.461349,2.023151 
	C151.859802,2.003691 124.258224,1.990910 96.656769,2.044466 
	C95.439980,2.046827 94.224396,2.677218 92.965164,3.066570 
	C92.922066,3.118070 92.796432,3.165547 92.590179,3.161857 
	C92.383919,3.158168 92.008987,2.985985 92.012634,2.767479 
	C92.016273,2.548974 91.956108,2.116064 91.969070,1.837126 
	C91.988014,1.372125 91.994011,1.186063 92.000000,1.000000 
z"/>
<path fill="#F4F4F6" opacity="1.000000" stroke="none" 
	d="
M92.003387,184.164581 
	C92.003387,184.164581 92.001312,184.582291 92.000656,184.791138 
	C61.702950,185.000000 31.405899,185.000000 1.054425,185.000000 
	C1.054425,123.776352 1.054425,62.552647 1.054425,1.000000 
	C31.020094,1.000000 61.041389,1.000000 91.531342,1.000000 
	C91.994011,1.186063 91.988014,1.372125 91.505630,1.787222 
	C61.445217,2.016256 31.861204,2.016256 1.999911,2.016256 
	C1.999911,4.436778 1.999910,6.246257 1.999910,8.055736 
	C1.999914,53.370506 1.987865,98.685280 2.007520,144.000046 
	C2.013155,156.991043 2.110445,169.982025 2.315854,183.374817 
	C4.449300,183.851105 6.432452,183.986084 8.415922,183.990936 
	C36.278385,184.059204 64.140892,184.109726 92.003387,184.164581 
z"/>
<path fill="#000061" opacity="1.000000" stroke="none" 
	d="
M92.008987,2.985985 
	C92.008987,2.985985 92.383919,3.158168 92.567986,3.619048 
	C92.738266,63.730110 92.724480,123.380287 92.262909,182.985107 
	C62.242004,182.936676 32.668888,182.933609 3.063368,182.467316 
	C3.030961,122.501060 3.030961,62.998039 3.030961,2.985985 
	C33.172508,2.985985 62.590748,2.985985 92.008987,2.985985 
z"/>
<path fill="#FFFFFF" opacity="1.000000" stroke="none" 
	d="
M92.710693,183.030472 
	C92.724480,123.380287 92.738266,63.730110 92.774246,3.622737 
	C92.796432,3.165547 92.922066,3.118070 93.433456,3.068183 
	C123.281746,3.006865 152.618652,2.995433 181.955551,2.984001 
	C181.955551,2.984001 182.390747,3.014474 182.726593,3.058772 
	C183.062424,3.103070 183.278015,2.987683 183.236511,3.454529 
	C183.211411,63.599514 183.227798,123.277657 183.141739,182.862183 
	C183.039291,182.768570 182.805466,182.918091 182.350616,182.931885 
	C152.322525,182.932785 122.749275,182.919891 93.035271,182.845825 
	C92.894508,182.784637 92.710693,183.030472 92.710693,183.030472 
z"/>
<path fill="#40406C" opacity="1.000000" stroke="none" 
	d="
M92.012634,2.767479 
	C62.590748,2.985985 33.172508,2.985985 3.030961,2.985985 
	C3.030961,62.998039 3.030961,122.501060 2.831079,182.488312 
	C2.631196,182.972534 2.165709,182.973007 2.165709,182.973007 
	C2.110445,169.982025 2.013155,156.991043 2.007520,144.000046 
	C1.987865,98.685280 1.999914,53.370506 1.999910,8.055736 
	C1.999910,6.246257 1.999911,4.436778 1.999911,2.016256 
	C31.861204,2.016256 61.445217,2.016256 91.492668,2.066160 
	C91.956108,2.116064 92.016273,2.548974 92.012634,2.767479 
z"/>
<path fill="#B2595D" opacity="1.000000" stroke="none" 
	d="
M273.143341,2.913155 
	C273.428802,4.134413 273.963196,5.355500 273.964050,6.576952 
	C274.003845,64.582710 273.998138,122.588501 273.987457,180.594284 
	C273.987335,181.252640 273.854279,181.910980 273.373535,182.768463 
	C272.963745,182.967621 272.805908,182.806183 272.858643,182.616150 
	C272.911407,182.426102 272.881348,182.032471 272.925262,181.563644 
	C272.982513,158.142593 273.018677,135.190338 273.003998,112.238121 
	C272.980865,76.147835 272.923492,40.057564 272.883606,3.746098 
	C272.886536,3.524908 272.727386,3.112098 272.827271,3.053802 
	C272.927185,2.995505 273.143341,2.913154 273.143341,2.913155 
z"/>
<path fill="#58577A" opacity="1.000000" stroke="none" 
	d="
M2.315854,183.374817 
	C2.165709,182.973007 2.631196,182.972534 2.863485,182.951538 
	C32.668888,182.933609 62.242004,182.936676 92.262909,182.985107 
	C92.710693,183.030472 92.894508,182.784637 92.949158,183.091232 
	C92.962868,183.566360 92.921913,183.734909 92.880966,183.903442 
	C92.880966,183.903442 92.435463,184.011444 92.219421,184.088013 
	C64.140892,184.109726 36.278385,184.059204 8.415922,183.990936 
	C6.432452,183.986084 4.449300,183.851105 2.315854,183.374817 
z"/>
<path fill="#B2595D" opacity="1.000000" stroke="none" 
	d="
M273.042206,183.048767 
	C271.563477,183.419937 270.006714,183.960388 268.449066,183.962830 
	C240.309433,184.006866 212.169693,183.985992 183.506958,183.688416 
	C182.924438,183.237930 182.864960,183.078018 182.805466,182.918091 
	C182.805466,182.918091 183.039291,182.768570 183.357544,182.760162 
	C183.675781,182.751770 184.143951,182.656006 184.332947,182.764435 
	C184.521927,182.872864 184.957672,182.876678 185.426971,182.922226 
	C214.607895,182.938934 243.319489,182.910095 272.228058,182.895981 
	C272.425018,182.910690 272.805908,182.806183 272.805908,182.806183 
	C272.805908,182.806183 272.963745,182.967621 273.042206,183.048767 
z"/>
<path fill="#C7C6C3" opacity="1.000000" stroke="none" 
	d="
M182.350616,182.931885 
	C182.864960,183.078018 182.924438,183.237930 183.046982,183.645782 
	C153.350952,183.916656 123.591866,183.939590 93.356873,183.932983 
	C92.921913,183.734909 92.962868,183.566360 93.089920,183.152405 
	C122.749275,182.919891 152.322525,182.932785 182.350616,182.931885 
z"/>
<path fill="#AB424A" opacity="1.000000" stroke="none" 
	d="
M182.944351,3.071299 
	C183.510269,2.697859 184.194443,2.057132 184.878220,2.057561 
	C214.122238,2.075905 243.366211,2.151276 272.876770,2.566404 
	C273.143341,2.913154 272.927185,2.995505 272.653687,3.029693 
	C272.380188,3.063881 272.030121,3.097743 271.560577,3.065920 
	C242.380829,3.056249 213.670639,3.078401 184.746765,3.104077 
	C184.533081,3.107600 184.146744,3.290407 183.921524,3.237791 
	C183.696304,3.185175 183.278015,2.987683 183.278015,2.987683 
	C183.278015,2.987683 183.062424,3.103070 182.944351,3.071299 
z"/>
<path fill="#C7C6C3" opacity="1.000000" stroke="none" 
	d="
M181.680328,2.672841 
	C152.618652,2.995433 123.281746,3.006865 93.476547,3.016683 
	C94.224396,2.677218 95.439980,2.046827 96.656769,2.044466 
	C124.258224,1.990910 151.859802,2.003691 179.461349,2.023151 
	C180.109344,2.023607 180.757187,2.243917 181.680328,2.672841 
z"/>
<path fill="#D1081D" opacity="1.000000" stroke="none" 
	d="
M184.960434,3.100553 
	C213.670639,3.078401 242.380829,3.056249 271.655731,3.251400 
	C272.389984,3.701755 272.610046,3.867950 272.880615,3.967288 
	C272.923492,40.057564 272.980865,76.147835 273.003998,112.238121 
	C273.018677,135.190338 272.982513,158.142593 272.743103,181.659790 
	C272.289398,182.394989 272.127411,182.613815 272.031097,182.881256 
	C243.319489,182.910095 214.607895,182.938934 185.366135,182.792389 
	C184.603668,182.374405 184.372986,182.387405 184.143951,182.656006 
	C184.143951,182.656006 183.675781,182.751770 183.459991,182.853790 
	C183.227798,123.277657 183.211411,63.599514 183.236511,3.454529 
	C183.278015,2.987683 183.696304,3.185175 184.014359,3.343410 
	C184.648468,3.578898 184.857803,3.445201 184.960434,3.100553 
z"/>
<path fill="#CE021C" opacity="1.000000" stroke="none" 
	d="
M272.883575,3.746098 
	C272.610046,3.867950 272.389984,3.701755 272.125275,3.283223 
	C272.030121,3.097743 272.380188,3.063881 272.553772,3.087989 
	C272.727386,3.112098 272.886536,3.524908 272.883575,3.746098 
z"/>
<path fill="#CE021C" opacity="1.000000" stroke="none" 
	d="
M272.228058,182.895966 
	C272.127411,182.613815 272.289398,182.394989 272.699219,182.128632 
	C272.881348,182.032471 272.911407,182.426102 272.858643,182.616150 
	C272.805908,182.806183 272.425018,182.910690 272.228058,182.895966 
z"/>
<path fill="#D00013" opacity="1.000000" stroke="none" 
	d="
M184.332947,182.764435 
	C184.372986,182.387405 184.603668,182.374405 184.896820,182.746841 
	C184.957672,182.876678 184.521927,182.872864 184.332947,182.764435 
z"/>
<path fill="#D00013" opacity="1.000000" stroke="none" 
	d="
M184.746765,3.104077 
	C184.857803,3.445201 184.648468,3.578898 184.239578,3.396026 
	C184.146744,3.290407 184.533081,3.107600 184.746765,3.104077 
z"/>
</svg>