<svg version="1.1" id="Layer_1" xmlns="http://www.w3.org/2000/svg" xmlns:xlink="http://www.w3.org/1999/xlink" x="0px" y="0px"
	 width="100%" viewBox="0 0 310 163" enable-background="new 0 0 310 163" xml:space="preserve">
<path fill="#0C3262" opacity="1.000000" stroke="none" 
	d="
M1.000000,88.000000 
	C1.000000,59.060242 1.000000,30.120485 1.000000,1.000000 
	C42.020718,1.000000 83.041702,1.000000 124.535149,1.458367 
	C125.058784,5.278548 125.109955,8.640363 125.129227,12.331705 
	C125.131004,12.879360 125.164680,13.097488 125.131348,13.754879 
	C125.097992,18.131231 125.131630,22.068321 125.104034,26.458174 
	C125.082405,30.274469 125.122025,33.638004 125.132019,37.358200 
	C125.137848,37.950802 125.173294,38.186749 125.130920,38.854828 
	C125.095657,43.231544 125.138222,47.176132 125.115738,51.567955 
	C125.095421,55.405869 125.140144,58.796539 125.126785,62.464069 
	C125.101051,63.114891 125.133415,63.488850 125.092804,64.329613 
	C125.072769,68.579384 125.125725,72.362358 125.112534,76.586441 
	C124.967094,80.647682 124.887810,84.267822 124.354370,87.911751 
	C82.933479,87.957024 41.966740,87.978516 1.000000,88.000000 
M13.046192,65.669121 
	C13.232570,65.284660 13.418947,64.900192 13.526464,63.954014 
	C14.034435,63.039604 14.542406,62.125195 14.863291,61.547562 
	C13.647113,60.608925 12.472076,59.702038 11.367869,58.849819 
	C10.334282,59.646629 8.987502,60.684879 8.016939,61.433102 
	C8.556182,62.931099 9.044734,64.288277 9.519357,65.606766 
	C10.029772,65.357574 10.459414,65.000549 10.916960,64.960243 
	C11.545498,64.904861 12.195170,65.089371 13.046192,65.669121 
M75.046173,65.669106 
	C75.232567,65.284676 75.418961,64.900238 75.526497,63.954075 
	C76.034462,63.039654 76.542427,62.125233 76.863319,61.547573 
	C75.647156,60.608967 74.472107,59.702091 73.367821,58.849827 
	C72.338684,59.643204 70.989403,60.683384 70.016922,61.433090 
	C70.556168,62.931091 71.044731,64.288277 71.362526,65.171097 
	C72.679436,65.171097 73.757607,65.171097 75.046173,65.669106 
M113.890099,65.014030 
	C114.805687,65.170319 115.721275,65.326607 116.565369,65.470695 
	C117.054863,64.192444 117.624191,62.705738 118.066742,61.550076 
	C116.821312,60.548027 115.574059,59.544514 114.706757,58.846703 
	C113.385811,59.880035 112.179474,60.823711 111.427986,61.411575 
	C111.790520,62.575405 112.092293,63.544205 112.134430,64.985184 
	C112.195847,65.242424 112.257256,65.499657 112.318672,65.756897 
	C112.601326,65.561691 112.883972,65.366493 113.890099,65.014030 
M51.890099,65.014023 
	C52.805691,65.170319 53.721287,65.326614 54.565353,65.470695 
	C55.054848,64.192421 55.624157,62.705719 56.066700,61.550056 
	C54.801579,60.532162 53.564613,59.536919 52.706760,58.846703 
	C51.407703,59.862915 50.177608,60.825184 49.428009,61.411575 
	C49.790531,62.575424 50.092300,63.544224 50.134418,64.985207 
	C50.195835,65.242439 50.257256,65.499680 50.318676,65.756912 
	C50.601326,65.561707 50.883976,65.366501 51.890099,65.014023 
M61.891121,38.972248 
	C62.890949,39.021461 63.890781,39.070671 65.076416,39.554749 
	C65.185745,39.235771 65.295074,38.916794 65.245811,37.926998 
	C65.719048,36.820599 66.192276,35.714199 66.557549,34.860218 
	C65.282608,34.013985 64.056740,33.200321 62.991085,32.492996 
	C61.808029,33.288677 60.598907,34.101891 59.644386,34.743866 
	C59.961243,36.025284 60.278877,37.309849 60.281704,38.951637 
	C60.356556,39.227528 60.431408,39.503418 60.506260,39.779305 
	C60.707726,39.559345 60.909191,39.339386 61.891121,38.972248 
M9.944696,7.692413 
	C9.093847,7.926535 8.242998,8.160657 7.709659,8.307412 
	C8.081446,10.002829 8.401034,11.460211 8.657028,12.627589 
	C12.947233,14.647072 13.769786,10.990562 15.008470,8.845497 
	C13.963997,7.903157 12.920089,6.884058 11.758786,6.023355 
	C11.631214,5.928803 10.830077,6.743058 9.944696,7.692413 
M23.960722,72.761673 
	C24.440401,71.825226 24.920082,70.888779 25.250650,70.243431 
	C23.895695,69.209953 22.588865,68.213188 21.601553,67.460129 
	C20.399300,68.362236 19.131504,69.313530 17.865757,70.253418 
	C18.384741,71.674324 18.903725,73.095222 19.424017,74.519707 
	C20.951008,74.182861 22.497402,73.841736 23.960722,72.761673 
M75.865677,12.018788 
	C76.210564,10.784100 76.555458,9.549411 76.820877,8.599223 
	C75.699036,7.812389 74.417175,6.913315 73.337357,6.155952 
	C72.159889,6.930433 70.815613,7.814631 69.770554,8.502016 
	C70.106331,10.063238 70.417313,11.509152 70.679558,12.728516 
	C72.424446,12.728516 74.134705,12.728516 75.865677,12.018788 
M85.499435,74.835945 
	C86.046928,73.255302 86.594421,71.674652 87.117821,70.163551 
	C85.959846,69.263512 84.631752,68.231247 83.597107,67.427063 
	C82.428490,68.319069 81.140900,69.301895 79.865723,70.275253 
	C80.399841,71.707382 80.938019,73.150414 81.323853,74.184967 
	C82.629051,74.244370 83.764206,74.296028 85.499435,74.835945 
M105.083084,50.733707 
	C104.484596,50.870522 103.857071,50.934803 103.294052,51.160225 
	C102.316772,51.551502 101.379387,52.042431 100.814484,52.308346 
	C101.096092,53.863087 101.357918,55.308594 101.644875,56.892883 
	C102.981773,56.809780 104.547592,56.712448 106.076843,56.617390 
	C106.771049,55.140289 107.441742,53.713223 108.100128,52.312340 
	C107.153656,51.994602 106.238678,51.687431 105.083084,50.733707 
M46.386036,52.599922 
	C45.011730,51.756725 43.637421,50.913532 42.308640,50.098267 
	C41.383511,50.742649 39.985744,51.716232 38.751511,52.575912 
	C39.048782,53.857819 39.409725,55.414280 40.102528,58.401787 
	C42.402634,56.296471 44.155647,54.691917 46.386036,52.599922 
M113.157692,42.879028 
	C112.349724,43.011017 111.541748,43.143005 110.711533,43.278629 
	C111.261383,44.997520 111.778687,46.614662 112.124138,47.694580 
	C113.802322,47.839184 115.284660,47.966911 116.827278,48.099834 
	C117.174721,46.934017 117.699577,45.172916 118.165009,43.611225 
	C117.337807,42.984509 116.276306,42.086918 115.097000,41.388168 
	C114.921524,41.284195 114.191414,42.116318 113.157692,42.879028 
M38.991222,17.055983 
	C39.221569,18.643764 39.451912,20.231546 39.660881,21.671980 
	C41.305412,21.671980 42.988209,21.671980 44.393787,21.671980 
	C44.883263,20.225399 45.354874,18.831610 45.755470,17.647690 
	C44.680862,16.789352 43.440750,15.798821 42.285622,14.876169 
	C41.599545,15.428869 40.640949,16.201109 38.991222,17.055983 
M42.294899,73.655273 
	C43.012714,73.954826 43.730526,74.254379 44.435673,74.548645 
	C44.890984,72.987434 45.350792,71.410812 45.734165,70.096275 
	C44.601280,69.228943 43.372658,68.288307 42.328327,67.488770 
	C41.177711,68.375664 39.885902,69.371391 38.490891,70.446671 
	C39.515762,71.594109 40.536743,72.737190 42.294899,73.655273 
M105.029045,73.880630 
	C108.829391,74.435104 105.769081,70.310524 107.736053,70.108543 
	C106.499496,69.117149 105.374588,68.215271 104.405334,67.438179 
	C103.342247,68.263214 102.034363,69.278214 100.221558,70.685074 
	C101.526390,71.639694 102.906998,72.649757 105.029045,73.880630 
M12.151843,83.597282 
	C13.255043,81.936478 14.358244,80.275681 15.213614,78.987976 
	C13.666822,77.898926 12.393105,77.002136 11.404548,76.306122 
	C10.132411,77.103607 8.830122,77.919998 6.526216,79.364281 
	C8.463925,80.622368 10.208697,81.755196 12.151843,83.597282 
M76.160110,78.163147 
	C75.208549,77.494888 74.256989,76.826637 73.405373,76.228569 
	C72.280373,77.006447 70.869408,77.982063 68.663651,79.507233 
	C71.040085,81.226166 73.078400,82.700531 75.330566,84.329575 
	C75.946861,81.853905 76.397453,80.043869 76.160110,78.163147 
M51.707397,42.531200 
	C50.671272,42.843338 49.635151,43.155476 48.700115,43.437160 
	C49.261814,45.068928 49.778942,46.571220 50.183056,47.745197 
	C51.826115,47.923279 53.403496,48.094238 54.712807,48.236145 
	C55.226532,46.708645 55.798775,45.007149 56.332890,43.419029 
	C55.489784,43.058960 54.633648,42.650009 53.745625,42.329361 
	C53.157257,42.116901 52.523201,42.030983 51.707397,42.531200 
M101.810822,21.947258 
	C103.462082,21.809818 105.113350,21.672377 106.400360,21.565252 
	C106.934898,20.021748 107.409378,18.651657 107.767296,17.618155 
	C106.614616,16.683781 105.467529,15.753936 104.419441,14.904343 
	C103.337524,15.681287 101.940750,16.684343 101.211349,17.208143 
	C101.211349,18.977947 101.211349,20.294336 101.810822,21.947258 
M20.915802,33.053051 
	C19.859047,33.728081 18.802294,34.403114 17.789928,35.049789 
	C18.360859,36.649235 18.868032,38.070068 19.634420,40.217083 
	C21.900429,38.464699 23.990004,36.848759 26.208799,35.132885 
	C24.005365,33.978924 22.532831,33.207741 20.915802,33.053051 
M85.609642,38.705318 
	C86.223747,37.309631 86.837852,35.913944 87.314056,34.831665 
	C85.918510,33.899548 84.587852,33.010773 83.777451,32.469486 
	C82.232666,33.483856 80.989952,34.299873 79.804321,35.078403 
	C80.355492,36.639023 80.860298,38.068378 81.291031,39.287991 
	C82.524284,39.137817 83.735153,38.990368 85.609642,38.705318 
M49.143974,78.217903 
	C49.492756,79.985855 49.841537,81.753799 50.382637,84.496597 
	C53.008759,82.351929 55.051922,80.683334 56.965931,79.120224 
	C55.052559,77.874893 53.646774,76.959923 52.569027,76.258461 
	C51.723892,76.843163 50.777016,77.498260 49.143974,78.217903 
M112.236618,10.298173 
	C112.236618,11.089953 112.236618,11.881735 112.236618,12.887710 
	C113.803955,12.807647 115.356186,12.728356 116.603500,12.664641 
	C117.229996,11.137935 117.795090,9.760859 118.243965,8.666995 
	C116.937706,7.729304 115.602097,6.770545 114.748520,6.157810 
	C113.584969,6.826829 112.435547,7.387494 111.436462,8.146128 
	C111.234840,8.299212 111.602623,9.202189 112.236618,10.298173 
M115.863441,82.725822 
	C116.807983,81.320267 117.752518,79.914711 118.460533,78.861130 
	C116.855637,77.750298 115.598511,76.880173 114.720734,76.272614 
	C113.454369,77.118111 112.127792,78.003799 110.776505,78.905983 
	C111.216064,80.146873 111.792603,81.774437 112.357613,83.369476 
	C113.224373,83.108101 114.223152,82.806923 115.863441,82.725822 
M97.188019,60.942364 
	C96.080139,60.275444 94.972252,59.608521 93.829887,58.920841 
	C92.911644,59.664612 91.688148,60.655624 90.700378,61.455704 
	C91.072922,62.842251 91.474602,64.337242 91.845406,65.717300 
	C93.440735,65.717300 95.017830,65.717300 95.674377,65.717300 
	C96.561562,63.879318 97.184097,62.589619 97.188019,60.942364 
M49.701324,9.753587 
	C50.032898,10.858185 50.364468,11.962783 51.054749,14.262377 
	C53.433704,12.191530 55.231747,10.626362 56.984203,9.100877 
	C55.090763,7.800363 53.669445,6.824130 53.453926,6.676099 
	C52.333385,7.183542 51.436180,7.513299 50.621708,7.985695 
	C50.082249,8.298584 49.661381,8.815930 49.701324,9.753587 
M72.050613,47.817837 
	C73.307518,47.817837 74.564430,47.817837 75.635551,47.817837 
	C76.121567,46.396172 76.633217,44.899548 77.035454,43.722942 
	C75.833267,42.911713 74.517471,42.023819 73.336113,41.226643 
	C72.284058,41.929768 70.886322,42.863914 69.449661,43.824081 
	C69.989914,44.977470 70.672150,46.433975 72.050613,47.817837 
M34.783985,25.736675 
	C33.830353,25.041786 32.876724,24.346895 32.017162,23.720552 
	C30.823458,24.640224 29.568808,25.606850 27.757130,27.002630 
	C29.777494,28.425543 31.620874,29.723804 33.437271,31.003065 
	C34.266705,28.950354 34.878601,27.436007 34.783985,25.736675 
M93.604446,29.834545 
	C97.996140,31.877893 95.070755,26.084599 97.660736,26.526369 
	C96.218315,25.429085 95.041824,24.534096 93.971611,23.719957 
	C92.799896,24.649422 91.568169,25.626495 90.377632,26.570889 
	C91.215675,27.705416 92.044418,28.827356 93.604446,29.834545 
M46.069473,35.279640 
	C44.813351,34.240345 43.557232,33.201046 42.473625,32.304485 
	C41.231720,33.132385 39.876522,34.035809 37.889969,35.360115 
	C40.155350,37.002663 42.251209,38.522293 44.348602,40.043034 
	C44.963184,38.143425 45.337200,36.987389 46.069473,35.279640 
M100.397781,34.583447 
	C102.132538,36.490971 103.867287,38.398499 106.142937,40.900791 
	C107.020905,37.780125 107.488022,36.119759 107.835320,34.885326 
	C106.545006,33.941444 105.378212,33.087917 104.459969,32.416210 
	C103.388657,32.996227 102.197952,33.640881 100.397781,34.583447 
M8.076251,45.449173 
	C9.896425,46.488506 11.716600,47.527843 13.468838,48.528385 
	C14.122056,46.398163 14.603247,44.828945 14.942269,43.723354 
	C13.608853,42.752800 12.436989,41.899834 11.166821,40.975315 
	C10.312678,41.983509 9.137905,43.370167 8.076251,45.449173 
M20.122477,51.804340 
	C19.344887,51.957317 18.567299,52.110294 16.897388,52.438816 
	C19.250410,54.439419 21.086361,56.000393 23.070032,57.686962 
	C24.207436,55.013077 24.790749,53.641785 25.236916,52.592903 
	C23.924305,51.655148 22.586733,50.699558 21.269432,49.758453 
	C21.118464,50.169796 20.894596,50.779758 20.122477,51.804340 
M87.251648,53.012878 
	C87.351692,52.883438 87.482391,52.766033 87.539787,52.619846 
	C87.572029,52.537697 87.516747,52.351173 87.443901,52.308132 
	C86.044647,51.481270 84.636917,50.668739 83.619766,50.078773 
	C82.349213,50.956757 81.033066,51.866241 79.260521,53.091106 
	C81.154297,54.574913 83.079391,56.083260 85.290756,57.815895 
	C86.043617,55.584431 86.393677,54.546848 87.251648,53.012878 
M28.204527,61.286015 
	C28.811171,62.713932 29.417812,64.141846 30.122557,65.800674 
	C31.326164,65.800674 32.955223,65.800674 34.065269,65.800674 
	C34.594154,64.016327 35.027641,62.553833 35.338470,61.505165 
	C34.124588,60.522198 32.993191,59.606030 32.146935,58.920753 
	C31.033556,59.597923 29.929792,60.269245 28.204527,61.286015 
M110.936066,26.633476 
	C112.727539,28.152664 114.519012,29.671852 116.384323,31.253654 
	C117.183769,28.883543 117.649406,27.503090 118.061096,26.282560 
	C116.853813,25.420015 115.539871,24.481266 114.872581,24.004519 
	C113.376183,24.784588 112.212852,25.391031 110.936066,26.633476 
M97.449699,78.195267 
	C94.948265,76.695137 92.498306,76.729713 90.312981,78.546555 
	C90.817635,79.819405 91.403061,81.296005 92.482666,84.019035 
	C94.390030,82.123276 96.174759,80.349411 97.449699,78.195267 
M34.174114,80.524681 
	C34.778049,79.994041 35.381989,79.463394 35.985676,78.932976 
	C33.361336,75.914291 30.740171,77.336884 28.358694,78.434242 
	C28.905691,79.899483 29.448376,81.353172 30.167648,83.279884 
	C31.219770,82.740257 32.667141,81.997902 34.174114,80.524681 
M65.024651,72.879707 
	C65.559761,71.952072 66.094872,71.024437 66.539818,70.253105 
	C65.338646,69.354393 64.154572,68.468483 63.000549,67.605049 
	C61.849243,68.472694 60.574581,69.433296 59.714050,70.081810 
	C60.097507,71.487724 60.430038,72.706924 60.801525,74.068939 
	C62.027969,73.939804 63.450020,73.790062 65.024651,72.879707 
M9.088841,28.337034 
	C9.030181,28.984398 8.971521,29.631760 8.818725,31.317989 
	C11.379933,29.586641 13.395845,28.223907 15.418922,26.856331 
	C13.694978,25.527752 12.531413,24.631037 11.427301,23.780140 
	C10.601657,24.322144 9.387028,24.997351 8.365523,25.892855 
	C8.160517,26.072573 8.690052,27.090189 9.088841,28.337034 
M75.304298,29.161541 
	C75.828346,28.219568 76.352402,27.277597 76.843605,26.394663 
	C75.742111,25.572464 74.493065,24.640123 73.331291,23.772926 
	C72.210052,24.627703 70.937119,25.598124 70.132286,26.211685 
	C70.573524,27.856689 70.953278,29.272467 71.246048,30.363955 
	C72.546310,30.159317 73.767738,29.967085 75.304298,29.161541 
M54.647526,25.737568 
	C53.900059,24.917616 53.152592,24.097664 52.779259,23.688126 
	C51.454800,24.692751 50.291027,25.575493 48.432320,26.985353 
	C50.555752,28.392204 52.575096,29.730091 55.063236,31.378574 
	C55.183632,28.775400 55.253239,27.270426 54.647526,25.737568 
M23.035343,16.621065 
	C22.609232,15.929420 22.183123,15.237774 21.896992,14.773339 
	C20.500998,15.811203 19.180367,16.793037 17.276472,18.208504 
	C19.371441,19.620544 21.315744,20.931034 23.079784,22.120024 
	C24.111917,20.179724 24.758350,18.964495 25.404785,17.749268 
	C24.824955,17.478338 24.245125,17.207407 23.035343,16.621065 
M87.637161,17.495893 
	C86.159958,16.598190 84.682755,15.700487 83.645088,15.069890 
	C82.357582,16.020014 81.132751,16.923885 80.553047,17.351681 
	C80.654266,20.998911 82.800232,21.901125 85.535622,21.497078 
	C86.118538,20.252981 86.641380,19.137091 87.637161,17.495893 
M66.202423,17.049093 
	C65.088020,16.416317 63.973618,15.783541 62.707550,15.064646 
	C61.759911,15.746565 60.480602,16.667149 59.332314,17.493454 
	C60.006332,18.956547 60.672459,20.402514 61.963978,23.206024 
	C63.906170,20.885063 65.348999,19.160847 66.202423,17.049093 
M30.608688,12.823000 
	C33.708771,12.947793 34.628693,10.536521 36.057148,7.843359 
	C33.353485,7.525444 30.861633,7.232435 27.697245,6.860344 
	C28.796881,9.826585 29.366989,11.364441 30.608688,12.823000 
M90.824265,9.505492 
	C91.126114,10.643655 91.427963,11.781817 91.991142,13.905387 
	C94.322548,12.023084 96.230583,10.482599 98.083755,8.986406 
	C96.142570,7.701381 94.919586,6.891789 93.529945,5.971876 
	C92.504112,6.952311 91.444061,7.965447 90.824265,9.505492 
M92.047897,42.573143 
	C87.624741,43.887405 94.639946,46.335583 90.678734,47.695641 
	C91.208595,48.025623 91.738464,48.355610 92.268333,48.685593 
	C94.200623,47.113422 96.132912,45.541248 98.065193,43.969078 
	C97.903358,43.523460 97.741516,43.077847 97.579674,42.632229 
	C95.907814,42.446194 94.235947,42.260159 92.047897,42.573143 
M32.385971,47.241585 
	C33.541447,45.992882 34.696926,44.744179 35.852406,43.495480 
	C35.711224,43.406925 35.570038,43.318375 35.428852,43.229824 
	C35.400604,43.269520 35.372356,43.309219 35.344109,43.348919 
	C34.282093,42.616993 33.220074,41.885067 32.042946,41.073807 
	C30.805138,41.922436 29.537378,42.791595 28.537941,43.476799 
	C28.874187,44.700203 29.006411,45.911434 29.567520,46.872185 
	C29.799841,47.269974 30.950483,47.131432 32.385971,47.241585 
M65.096069,54.626411 
	C65.671860,53.875198 66.247658,53.123985 66.639832,52.612335 
	C65.286629,51.736233 64.051422,50.936527 62.775501,50.110458 
	C61.733807,50.833858 60.547432,51.657730 59.419701,52.440880 
	C59.807682,53.705257 60.259926,55.179066 60.794823,56.922218 
	C62.129776,56.436584 63.640148,55.887138 65.096069,54.626411 
z"/>
<path fill="#FCF8F8" opacity="1.000000" stroke="none" 
	d="
M311.000000,139.000000 
	C311.000000,143.024918 311.000000,147.049850 310.545776,151.411255 
	C208.048050,151.732071 106.004585,151.715576 3.961112,151.713150 
	C2.974077,151.713135 1.987038,151.900253 1.000000,152.000000 
	C1.000000,147.975082 1.000000,143.950150 1.466828,139.449432 
	C104.955772,138.982422 207.977890,138.991211 311.000000,139.000000 
z"/>
<path fill="#FBF6F7" opacity="1.000000" stroke="none" 
	d="
M311.000000,114.000000 
	C311.000000,118.024925 311.000000,122.049843 310.556671,126.370300 
	C309.614471,126.644165 309.115631,126.603539 308.616760,126.603516 
	C207.388855,126.599022 106.160942,126.595879 4.933034,126.612457 
	C3.622001,126.612671 2.311010,126.865227 1.000000,127.000000 
	C1.000000,122.975075 1.000000,118.950157 1.465607,114.412659 
	C103.957336,113.894516 205.983459,113.888626 308.009583,113.888237 
	C309.006378,113.888229 310.003204,113.961136 311.000000,114.000000 
z"/>
<path fill="#FFFFFF" opacity="1.000000" stroke="none" 
	d="
M311.000000,89.000000 
	C311.000000,92.692909 311.000000,96.385818 310.535645,100.609116 
	C208.042587,101.149475 106.013878,101.159927 3.985173,101.162392 
	C2.990117,101.162422 1.995058,101.056473 1.000000,101.000000 
	C1.000000,97.307091 1.000000,93.614182 1.466390,89.410637 
	C30.670681,88.894485 59.408611,88.910423 88.146469,88.873390 
	C100.432007,88.857552 112.717415,88.731293 125.465149,88.732422 
	C173.486740,88.820290 221.046051,88.819801 268.605377,88.848419 
	C282.736938,88.856926 296.868469,88.947197 311.000000,89.000000 
z"/>
<path fill="#B31942" opacity="1.000000" stroke="none" 
	d="
M311.000000,153.000000 
	C311.000000,156.661514 311.000000,160.323029 311.000000,164.000000 
	C207.983459,164.000000 104.966934,164.000046 1.950398,163.998169 
	C1.633540,163.998169 1.316682,163.970383 0.999912,163.953690 
	C1.000000,160.623169 1.000000,157.294540 1.468657,153.482956 
	C104.958206,153.000000 207.979111,153.000000 311.000000,153.000000 
z"/>
<path fill="#B31942" opacity="1.000000" stroke="none" 
	d="
M311.000000,138.542145 
	C207.977890,138.991211 104.955772,138.982422 1.466828,138.986816 
	C1.000000,135.638580 1.000000,132.277145 1.468657,128.457993 
	C104.958206,128.000168 207.979111,128.000092 311.000000,128.000000 
	C311.000000,131.361420 311.000000,134.722855 311.000000,138.542145 
z"/>
<path fill="#B41D45" opacity="1.000000" stroke="none" 
	d="
M311.000000,113.542023 
	C310.003204,113.961136 309.006378,113.888229 308.009583,113.888237 
	C205.983459,113.888626 103.957336,113.894516 1.465607,113.950043 
	C1.000000,110.638657 1.000000,107.277306 1.467808,103.425751 
	C69.673973,102.928207 137.412323,102.910233 205.150681,102.917931 
	C240.433792,102.921936 275.716888,102.971184 311.000000,103.000000 
	C311.000000,106.361343 311.000000,109.722694 311.000000,113.542023 
z"/>
<path fill="#FCF8F8" opacity="1.000000" stroke="none" 
	d="
M125.165268,26.005411 
	C125.131630,22.068321 125.097992,18.131231 125.586502,13.749447 
	C185.751648,13.303161 245.394653,13.304463 305.037659,13.287366 
	C307.025146,13.286797 309.012543,13.099994 311.000000,13.000000 
	C311.000000,17.024544 311.000000,21.049089 310.531494,25.550037 
	C248.430420,26.019432 186.797836,26.012421 125.165268,26.005411 
z"/>
<path fill="#FBF6F7" opacity="1.000000" stroke="none" 
	d="
M125.180786,51.120716 
	C125.138222,47.176132 125.095657,43.231544 125.585480,38.849319 
	C185.766769,38.409264 245.415680,38.410732 305.064575,38.387440 
	C307.043091,38.386669 309.021515,38.134815 311.000000,38.000000 
	C311.000000,42.024544 311.000000,46.049088 310.533630,50.586899 
	C248.438416,51.107014 186.809601,51.113865 125.180786,51.120716 
z"/>
<path fill="#FFFFFF" opacity="1.000000" stroke="none" 
	d="
M125.178680,76.145332 
	C125.125725,72.362358 125.072769,68.579384 125.547592,64.317596 
	C178.723648,63.835865 231.371933,63.824963 284.020203,63.837738 
	C293.013458,63.839920 302.006744,63.943344 311.000000,64.000000 
	C311.000000,67.692909 311.000000,71.385818 310.535339,75.606018 
	C248.440018,76.137321 186.809341,76.141327 125.178680,76.145332 
z"/>
<path fill="#B6264B" opacity="1.000000" stroke="none" 
	d="
M125.112534,76.586441 
	C186.809341,76.141327 248.440018,76.137321 310.535339,76.066658 
	C311.000000,76.000000 311.000000,76.500000 310.531799,76.773346 
	C249.104843,77.046700 188.146072,77.046700 127.187317,77.046700 
	C127.187744,77.364464 127.188171,77.682236 127.188599,78.000000 
	C188.459061,78.000000 249.729538,78.000000 311.000000,78.000000 
	C311.000000,80.700012 311.000000,83.400032 310.531372,86.544449 
	C249.103073,86.988846 188.143417,86.988846 127.183777,86.988846 
	C127.184204,87.325897 127.184631,87.662949 127.185059,88.000000 
	C188.456711,88.000000 249.728348,88.000000 311.000000,88.000000 
	C311.000000,88.000000 311.000000,88.500000 311.000000,88.750000 
	C296.868469,88.947197 282.736938,88.856926 268.605377,88.848419 
	C221.046051,88.819801 173.486740,88.820290 125.429794,88.537262 
	C124.932167,88.264885 124.808533,87.887962 124.808533,87.887962 
	C124.887810,84.267822 124.967094,80.647682 125.112534,76.586441 
z"/>
<path fill="#B31942" opacity="1.000000" stroke="none" 
	d="
M125.161125,12.002177 
	C125.109955,8.640363 125.058784,5.278548 125.003807,1.458367 
	C187.000000,1.000000 249.000015,1.000000 311.000000,1.000000 
	C311.000000,4.383226 311.000000,7.708657 310.531342,11.517044 
	C248.428833,12.000726 186.794983,12.001451 125.161125,12.002177 
z"/>
<path fill="#B41D44" opacity="1.000000" stroke="none" 
	d="
M125.115738,51.567955 
	C186.809601,51.113865 248.438416,51.107014 310.533630,51.050079 
	C311.000000,54.361286 311.000000,57.722576 310.532196,61.574150 
	C302.735748,62.071762 295.407135,62.081421 288.078491,62.086048 
	C233.780624,62.120335 179.482742,62.153610 125.184875,62.187210 
	C125.140144,58.796539 125.095421,55.405869 125.115738,51.567955 
z"/>
<path fill="#B31942" opacity="1.000000" stroke="none" 
	d="
M125.104027,26.458174 
	C186.797836,26.012421 248.430420,26.019432 310.531494,26.013222 
	C311.000000,29.361288 311.000000,32.722576 310.531342,36.541817 
	C248.429001,37.000359 186.795319,37.000946 125.161636,37.001537 
	C125.122025,33.638004 125.082405,30.274469 125.104027,26.458174 
z"/>
<path fill="#BE3E61" opacity="1.000000" stroke="none" 
	d="
M311.000000,102.666672 
	C275.716888,102.971184 240.433792,102.921936 205.150681,102.917931 
	C137.412323,102.910233 69.673973,102.928207 1.467808,102.967766 
	C1.000000,102.555557 1.000000,102.111107 1.000000,101.333336 
	C1.995058,101.056473 2.990117,101.162422 3.985173,101.162392 
	C106.013878,101.159927 208.042587,101.149475 310.535645,101.069756 
	C311.000000,101.444443 311.000000,101.888893 311.000000,102.666672 
z"/>
<path fill="#BE3E60" opacity="1.000000" stroke="none" 
	d="
M125.126785,62.464066 
	C179.482742,62.153610 233.780624,62.120335 288.078491,62.086048 
	C295.407135,62.081421 302.735748,62.071762 310.532196,62.032219 
	C311.000000,62.444447 311.000000,62.888889 311.000000,63.666668 
	C302.006744,63.943344 293.013458,63.839920 284.020203,63.837738 
	C231.371933,63.824963 178.723648,63.835865 125.620575,63.850796 
	C125.133415,63.488850 125.101051,63.114891 125.126785,62.464066 
z"/>
<path fill="#B00036" opacity="1.000000" stroke="none" 
	d="
M311.000000,152.750000 
	C207.979111,153.000000 104.958206,153.000000 1.468657,153.000000 
	C1.000000,153.000000 1.000000,152.500000 1.000000,152.250000 
	C1.987038,151.900253 2.974077,151.713135 3.961112,151.713150 
	C106.004585,151.715576 208.048050,151.732071 310.545776,151.873871 
	C311.000000,152.000000 311.000000,152.500000 311.000000,152.750000 
z"/>
<path fill="#B10038" opacity="1.000000" stroke="none" 
	d="
M311.000000,127.750000 
	C207.979111,128.000092 104.958206,128.000168 1.468657,128.000122 
	C1.000000,128.000000 1.000000,127.500000 1.000000,127.250000 
	C2.311010,126.865227 3.622001,126.612671 4.933034,126.612457 
	C106.160942,126.595879 207.388855,126.599022 308.616760,126.603516 
	C309.115631,126.603539 309.614471,126.644165 310.556671,126.832916 
	C311.000000,127.000000 311.000000,127.500000 311.000000,127.750000 
z"/>
<path fill="#B00036" opacity="1.000000" stroke="none" 
	d="
M125.129227,12.331705 
	C186.794983,12.001451 248.428833,12.000726 310.531342,12.000000 
	C311.000000,12.000000 311.000000,12.500000 311.000000,12.750000 
	C309.012543,13.099994 307.025146,13.286797 305.037659,13.287366 
	C245.394653,13.304463 185.751648,13.303161 125.653496,13.310184 
	C125.164680,13.097488 125.131004,12.879360 125.129227,12.331705 
z"/>
<path fill="#B10038" opacity="1.000000" stroke="none" 
	d="
M125.132019,37.358200 
	C186.795319,37.000946 248.429001,37.000359 310.531342,36.999886 
	C311.000000,37.000000 311.000000,37.500000 311.000000,37.750000 
	C309.021515,38.134815 307.043091,38.386669 305.064575,38.387440 
	C245.415680,38.410732 185.766769,38.409264 125.663307,38.417183 
	C125.173294,38.186749 125.137848,37.950802 125.132019,37.358200 
z"/>
<path fill="#B1053A" opacity="1.000000" stroke="none" 
	d="
M311.000000,77.750000 
	C249.729538,78.000000 188.459061,78.000000 127.188599,78.000000 
	C127.188171,77.682236 127.187744,77.364464 127.187317,77.046700 
	C188.146072,77.046700 249.104843,77.046700 310.531799,77.023346 
	C311.000000,77.000000 311.000000,77.500000 311.000000,77.750000 
z"/>
<path fill="#B1053A" opacity="1.000000" stroke="none" 
	d="
M311.000000,87.750000 
	C249.728348,88.000000 188.456711,88.000000 127.185059,88.000000 
	C127.184631,87.662949 127.184204,87.325897 127.183777,86.988846 
	C188.143417,86.988846 249.103073,86.988846 310.531372,86.994423 
	C311.000000,87.000000 311.000000,87.500000 311.000000,87.750000 
z"/>
<path fill="#2E4B72" opacity="1.000000" stroke="none" 
	d="
M124.354370,87.911751 
	C124.808533,87.887962 124.932167,88.264885 124.967522,88.460045 
	C112.717415,88.731293 100.432007,88.857552 88.146469,88.873390 
	C59.408611,88.910423 30.670681,88.894485 1.466390,88.949997 
	C1.000000,89.000000 1.000000,88.500000 1.000000,88.250000 
	C41.966740,87.978516 82.933479,87.957024 124.354370,87.911751 
z"/>
<path fill="#E1E4E9" opacity="1.000000" stroke="none" 
	d="
M10.143021,7.414108 
	C10.830077,6.743058 11.631214,5.928803 11.758786,6.023355 
	C12.920089,6.884058 13.963997,7.903157 15.008470,8.845497 
	C13.769786,10.990562 12.947233,14.647072 8.657028,12.627589 
	C8.401034,11.460211 8.081446,10.002829 7.709659,8.307412 
	C8.242998,8.160657 9.093847,7.926535 10.143021,7.414108 
z"/>
<path fill="#DEE1E7" opacity="1.000000" stroke="none" 
	d="
M24.002258,73.131142 
	C22.497402,73.841736 20.951008,74.182861 19.424017,74.519707 
	C18.903725,73.095222 18.384741,71.674324 17.864733,70.259125 
	C19.131504,69.313530 20.399300,68.362236 21.601553,67.460129 
	C22.588865,68.213188 23.895695,69.209953 25.250650,70.243431 
	C24.920082,70.888779 24.440401,71.825226 24.002258,73.131142 
z"/>
<path fill="#E1E4E9" opacity="1.000000" stroke="none" 
	d="
M75.855316,12.373652 
	C74.134705,12.728516 72.424446,12.728516 70.679558,12.728516 
	C70.417313,11.509152 70.106331,10.063238 69.770554,8.502016 
	C70.815613,7.814631 72.159889,6.930433 73.337357,6.155952 
	C74.417175,6.913315 75.699036,7.812389 76.820877,8.599223 
	C76.555458,9.549411 76.210564,10.784100 75.855316,12.373652 
z"/>
<path fill="#DEE1E7" opacity="1.000000" stroke="none" 
	d="
M85.199402,74.591820 
	C83.764206,74.296028 82.629051,74.244370 81.323853,74.184967 
	C80.938019,73.150414 80.399841,71.707382 79.865723,70.275253 
	C81.140900,69.301895 82.428490,68.319069 83.597107,67.427063 
	C84.631752,68.231247 85.959846,69.263512 87.117821,70.163551 
	C86.594421,71.674652 86.046928,73.255302 85.199402,74.591820 
z"/>
<path fill="#E1E4E9" opacity="1.000000" stroke="none" 
	d="
M105.203384,51.056984 
	C106.238678,51.687431 107.153656,51.994602 108.100128,52.312340 
	C107.441742,53.713223 106.771049,55.140289 106.076843,56.617390 
	C104.547592,56.712448 102.981773,56.809780 101.644875,56.892883 
	C101.357918,55.308594 101.096092,53.863087 100.814484,52.308346 
	C101.379387,52.042431 102.316772,51.551502 103.294052,51.160225 
	C103.857071,50.934803 104.484596,50.870522 105.203384,51.056984 
z"/>
<path fill="#E1E4E9" opacity="1.000000" stroke="none" 
	d="
M46.147350,52.843643 
	C44.155647,54.691917 42.402634,56.296471 40.102528,58.401787 
	C39.409725,55.414280 39.048782,53.857819 38.751511,52.575912 
	C39.985744,51.716232 41.383511,50.742649 42.308640,50.098267 
	C43.637421,50.913532 45.011730,51.756725 46.147350,52.843643 
z"/>
<path fill="#DBDEE5" opacity="1.000000" stroke="none" 
	d="
M113.437790,42.697205 
	C114.191414,42.116318 114.921524,41.284195 115.097000,41.388168 
	C116.276306,42.086918 117.337807,42.984509 118.165009,43.611225 
	C117.699577,45.172916 117.174721,46.934017 116.827278,48.099834 
	C115.284660,47.966911 113.802322,47.839184 112.124138,47.694580 
	C111.778687,46.614662 111.261383,44.997520 110.711533,43.278629 
	C111.541748,43.143005 112.349724,43.011017 113.437790,42.697205 
z"/>
<path fill="#E4E7EB" opacity="1.000000" stroke="none" 
	d="
M39.336788,17.014668 
	C40.640949,16.201109 41.599545,15.428869 42.285622,14.876169 
	C43.440750,15.798821 44.680862,16.789352 45.755470,17.647690 
	C45.354874,18.831610 44.883263,20.225399 44.393787,21.671980 
	C42.988209,21.671980 41.305412,21.671980 39.660881,21.671980 
	C39.451912,20.231546 39.221569,18.643764 39.336788,17.014668 
z"/>
<path fill="#DFE3E8" opacity="1.000000" stroke="none" 
	d="
M41.926315,73.767776 
	C40.536743,72.737190 39.515762,71.594109 38.490891,70.446671 
	C39.885902,69.371391 41.177711,68.375664 42.328327,67.488770 
	C43.372658,68.288307 44.601280,69.228943 45.734165,70.096275 
	C45.350792,71.410812 44.890984,72.987434 44.435673,74.548645 
	C43.730526,74.254379 43.012714,73.954826 41.926315,73.767776 
z"/>
<path fill="#DFE3E8" opacity="1.000000" stroke="none" 
	d="
M104.658325,73.770233 
	C102.906998,72.649757 101.526390,71.639694 100.221558,70.685074 
	C102.034363,69.278214 103.342247,68.263214 104.405334,67.438179 
	C105.374588,68.215271 106.499496,69.117149 107.736053,70.108543 
	C105.769081,70.310524 108.829391,74.435104 104.658325,73.770233 
z"/>
<path fill="#D6DAE1" opacity="1.000000" stroke="none" 
	d="
M12.052656,83.242645 
	C10.208697,81.755196 8.463925,80.622368 6.526216,79.364281 
	C8.830122,77.919998 10.132411,77.103607 11.404548,76.306122 
	C12.393105,77.002136 13.666822,77.898926 15.213614,78.987976 
	C14.358244,80.275681 13.255043,81.936478 12.052656,83.242645 
z"/>
<path fill="#D6DAE1" opacity="1.000000" stroke="none" 
	d="
M76.504074,78.198486 
	C76.397453,80.043869 75.946861,81.853905 75.330566,84.329575 
	C73.078400,82.700531 71.040085,81.226166 68.663651,79.507233 
	C70.869408,77.982063 72.280373,77.006447 73.405373,76.228569 
	C74.256989,76.826637 75.208549,77.494888 76.504074,78.198486 
z"/>
<path fill="#DBDEE5" opacity="1.000000" stroke="none" 
	d="
M51.808495,42.209808 
	C52.523201,42.030983 53.157257,42.116901 53.745625,42.329361 
	C54.633648,42.650009 55.489784,43.058960 56.332890,43.419029 
	C55.798775,45.007149 55.226532,46.708645 54.712807,48.236145 
	C53.403496,48.094238 51.826115,47.923279 50.183056,47.745197 
	C49.778942,46.571220 49.261814,45.068928 48.700115,43.437160 
	C49.635151,43.155476 50.671272,42.843338 51.808495,42.209808 
z"/>
<path fill="#E4E7EB" opacity="1.000000" stroke="none" 
	d="
M101.511086,21.778992 
	C101.211349,20.294336 101.211349,18.977947 101.211349,17.208143 
	C101.940750,16.684343 103.337524,15.681287 104.419441,14.904343 
	C105.467529,15.753936 106.614616,16.683781 107.767296,17.618155 
	C107.409378,18.651657 106.934898,20.021748 106.400360,21.565252 
	C105.113350,21.672377 103.462082,21.809818 101.511086,21.778992 
z"/>
<path fill="#D4D8DF" opacity="1.000000" stroke="none" 
	d="
M20.988049,32.744804 
	C22.532831,33.207741 24.005365,33.978924 26.208799,35.132885 
	C23.990004,36.848759 21.900429,38.464699 19.634420,40.217083 
	C18.868032,38.070068 18.360859,36.649235 17.789928,35.049789 
	C18.802294,34.403114 19.859047,33.728081 20.988049,32.744804 
z"/>
<path fill="#D4D8DF" opacity="1.000000" stroke="none" 
	d="
M85.277832,38.774117 
	C83.735153,38.990368 82.524284,39.137817 81.291031,39.287991 
	C80.860298,38.068378 80.355492,36.639023 79.804321,35.078403 
	C80.989952,34.299873 82.232666,33.483856 83.777451,32.469486 
	C84.587852,33.010773 85.918510,33.899548 87.314056,34.831665 
	C86.837852,35.913944 86.223747,37.309631 85.277832,38.774117 
z"/>
<path fill="#D2D7DE" opacity="1.000000" stroke="none" 
	d="
M49.487057,78.185623 
	C50.777016,77.498260 51.723892,76.843163 52.569027,76.258461 
	C53.646774,76.959923 55.052559,77.874893 56.965931,79.120224 
	C55.051922,80.683334 53.008759,82.351929 50.382637,84.496597 
	C49.841537,81.753799 49.492756,79.985855 49.487057,78.185623 
z"/>
<path fill="#DFE2E8" opacity="1.000000" stroke="none" 
	d="
M111.972260,10.028805 
	C111.602623,9.202189 111.234840,8.299212 111.436462,8.146128 
	C112.435547,7.387494 113.584969,6.826829 114.748520,6.157810 
	C115.602097,6.770545 116.937706,7.729304 118.243965,8.666995 
	C117.795090,9.760859 117.229996,11.137935 116.603500,12.664641 
	C115.356186,12.728356 113.803955,12.807647 112.236618,12.887710 
	C112.236618,11.881735 112.236618,11.089953 111.972260,10.028805 
z"/>
<path fill="#D2D7DE" opacity="1.000000" stroke="none" 
	d="
M115.542686,82.615784 
	C114.223152,82.806923 113.224373,83.108101 112.357613,83.369476 
	C111.792603,81.774437 111.216064,80.146873 110.776505,78.905983 
	C112.127792,78.003799 113.454369,77.118111 114.720734,76.272614 
	C115.598511,76.880173 116.855637,77.750298 118.460533,78.861130 
	C117.752518,79.914711 116.807983,81.320267 115.542686,82.615784 
z"/>
<path fill="#DFE2E7" opacity="1.000000" stroke="none" 
	d="
M97.497322,61.121140 
	C97.184097,62.589619 96.561562,63.879318 95.674377,65.717300 
	C95.017830,65.717300 93.440735,65.717300 91.845406,65.717300 
	C91.474602,64.337242 91.072922,62.842251 90.700378,61.455704 
	C91.688148,60.655624 92.911644,59.664612 93.829887,58.920841 
	C94.972252,59.608521 96.080139,60.275444 97.497322,61.121140 
z"/>
<path fill="#DFE2E8" opacity="1.000000" stroke="none" 
	d="
M49.444374,9.497666 
	C49.661381,8.815930 50.082249,8.298584 50.621708,7.985695 
	C51.436180,7.513299 52.333385,7.183542 53.453926,6.676099 
	C53.669445,6.824130 55.090763,7.800363 56.984203,9.100877 
	C55.231747,10.626362 53.433704,12.191530 51.054749,14.262377 
	C50.364468,11.962783 50.032898,10.858185 49.444374,9.497666 
z"/>
<path fill="#DBDFE5" opacity="1.000000" stroke="none" 
	d="
M71.702499,47.854156 
	C70.672150,46.433975 69.989914,44.977470 69.449661,43.824081 
	C70.886322,42.863914 72.284058,41.929768 73.336113,41.226643 
	C74.517471,42.023819 75.833267,42.911713 77.035454,43.722942 
	C76.633217,44.899548 76.121567,46.396172 75.635551,47.817837 
	C74.564430,47.817837 73.307518,47.817837 71.702499,47.854156 
z"/>
<path fill="#E5E8EC" opacity="1.000000" stroke="none" 
	d="
M35.137241,25.829166 
	C34.878601,27.436007 34.266705,28.950354 33.437271,31.003065 
	C31.620874,29.723804 29.777494,28.425543 27.757130,27.002630 
	C29.568808,25.606850 30.823458,24.640224 32.017162,23.720552 
	C32.876724,24.346895 33.830353,25.041786 35.137241,25.829166 
z"/>
<path fill="#E5E8EC" opacity="1.000000" stroke="none" 
	d="
M93.238808,29.891922 
	C92.044418,28.827356 91.215675,27.705416 90.377632,26.570889 
	C91.568169,25.626495 92.799896,24.649422 93.971611,23.719957 
	C95.041824,24.534096 96.218315,25.429085 97.660736,26.526369 
	C95.070755,26.084599 97.996140,31.877893 93.238808,29.891922 
z"/>
<path fill="#D4D8DF" opacity="1.000000" stroke="none" 
	d="
M45.890343,35.555496 
	C45.337200,36.987389 44.963184,38.143425 44.348602,40.043034 
	C42.251209,38.522293 40.155350,37.002663 37.889969,35.360115 
	C39.876522,34.035809 41.231720,33.132385 42.473625,32.304485 
	C43.557232,33.201046 44.813351,34.240345 45.890343,35.555496 
z"/>
<path fill="#D4D8DF" opacity="1.000000" stroke="none" 
	d="
M100.702515,34.434490 
	C102.197952,33.640881 103.388657,32.996227 104.459969,32.416210 
	C105.378212,33.087917 106.545006,33.941444 107.835320,34.885326 
	C107.488022,36.119759 107.020905,37.780125 106.142937,40.900791 
	C103.867287,38.398499 102.132538,36.490971 100.702515,34.434490 
z"/>
<path fill="#DBDFE5" opacity="1.000000" stroke="none" 
	d="
M8.019691,45.103001 
	C9.137905,43.370167 10.312678,41.983509 11.166821,40.975315 
	C12.436989,41.899834 13.608853,42.752800 14.942269,43.723354 
	C14.603247,44.828945 14.122056,46.398163 13.468838,48.528385 
	C11.716600,47.527843 9.896425,46.488506 8.019691,45.103001 
z"/>
<path fill="#E1E4E9" opacity="1.000000" stroke="none" 
	d="
M20.396603,51.597031 
	C20.894596,50.779758 21.118464,50.169796 21.269432,49.758453 
	C22.586733,50.699558 23.924305,51.655148 25.236916,52.592903 
	C24.790749,53.641785 24.207436,55.013077 23.070032,57.686962 
	C21.086361,56.000393 19.250410,54.439419 16.897388,52.438816 
	C18.567299,52.110294 19.344887,51.957317 20.396603,51.597031 
z"/>
<path fill="#E1E4E9" opacity="1.000000" stroke="none" 
	d="
M86.997696,53.261070 
	C86.393677,54.546848 86.043617,55.584431 85.290756,57.815895 
	C83.079391,56.083260 81.154297,54.574913 79.260521,53.091106 
	C81.033066,51.866241 82.349213,50.956757 83.619766,50.078773 
	C84.636917,50.668739 86.044647,51.481270 87.443901,52.308132 
	C87.516747,52.351173 87.572029,52.537697 87.539787,52.619846 
	C87.482391,52.766033 87.351692,52.883438 86.997696,53.261070 
z"/>
<path fill="#DFE2E7" opacity="1.000000" stroke="none" 
	d="
M28.515278,61.113289 
	C29.929792,60.269245 31.033556,59.597923 32.146935,58.920753 
	C32.993191,59.606030 34.124588,60.522198 35.338470,61.505165 
	C35.027641,62.553833 34.594154,64.016327 34.065269,65.800674 
	C32.955223,65.800674 31.326164,65.800674 30.122557,65.800674 
	C29.417812,64.141846 28.811171,62.713932 28.515278,61.113289 
z"/>
<path fill="#E9EBEF" opacity="1.000000" stroke="none" 
	d="
M110.992790,26.315475 
	C112.212852,25.391031 113.376183,24.784588 114.872581,24.004519 
	C115.539871,24.481266 116.853813,25.420015 118.061096,26.282560 
	C117.649406,27.503090 117.183769,28.883543 116.384323,31.253654 
	C114.519012,29.671852 112.727539,28.152664 110.992790,26.315475 
z"/>
<path fill="#E2E5EA" opacity="1.000000" stroke="none" 
	d="
M97.704590,78.385406 
	C96.174759,80.349411 94.390030,82.123276 92.482666,84.019035 
	C91.403061,81.296005 90.817635,79.819405 90.312981,78.546555 
	C92.498306,76.729713 94.948265,76.695137 97.704590,78.385406 
z"/>
<path fill="#E2E5EA" opacity="1.000000" stroke="none" 
	d="
M34.144310,80.890121 
	C32.667141,81.997902 31.219770,82.740257 30.167648,83.279884 
	C29.448376,81.353172 28.905691,79.899483 28.358694,78.434242 
	C30.740171,77.336884 33.361336,75.914291 35.985676,78.932976 
	C35.381989,79.463394 34.778049,79.994041 34.144310,80.890121 
z"/>
<path fill="#E1E4E9" opacity="1.000000" stroke="none" 
	d="
M64.948364,73.260017 
	C63.450020,73.790062 62.027969,73.939804 60.801525,74.068939 
	C60.430038,72.706924 60.097507,71.487724 59.714050,70.081810 
	C60.574581,69.433296 61.849243,68.472694 63.000549,67.605049 
	C64.154572,68.468483 65.338646,69.354393 66.539818,70.253105 
	C66.094872,71.024437 65.559761,71.952072 64.948364,73.260017 
z"/>
<path fill="#E8EAEE" opacity="1.000000" stroke="none" 
	d="
M8.984877,28.029253 
	C8.690052,27.090189 8.160517,26.072573 8.365523,25.892855 
	C9.387028,24.997351 10.601657,24.322144 11.427301,23.780140 
	C12.531413,24.631037 13.694978,25.527752 15.418922,26.856331 
	C13.395845,28.223907 11.379933,29.586641 8.818725,31.317989 
	C8.971521,29.631760 9.030181,28.984398 8.984877,28.029253 
z"/>
<path fill="#E8EAEE" opacity="1.000000" stroke="none" 
	d="
M75.146729,29.468197 
	C73.767738,29.967085 72.546310,30.159317 71.246048,30.363955 
	C70.953278,29.272467 70.573524,27.856689 70.132286,26.211685 
	C70.937119,25.598124 72.210052,24.627703 73.331291,23.772926 
	C74.493065,24.640123 75.742111,25.572464 76.843605,26.394663 
	C76.352402,27.277597 75.828346,28.219568 75.146729,29.468197 
z"/>
<path fill="#E9EBEF" opacity="1.000000" stroke="none" 
	d="
M54.985184,25.751511 
	C55.253239,27.270426 55.183632,28.775400 55.063236,31.378574 
	C52.575096,29.730091 50.555752,28.392204 48.432320,26.985353 
	C50.291027,25.575493 51.454800,24.692751 52.779259,23.688126 
	C53.152592,24.097664 53.900059,24.917616 54.985184,25.751511 
z"/>
<path fill="#E6E9ED" opacity="1.000000" stroke="none" 
	d="
M23.350319,16.778770 
	C24.245125,17.207407 24.824955,17.478338 25.404785,17.749268 
	C24.758350,18.964495 24.111917,20.179724 23.079784,22.120024 
	C21.315744,20.931034 19.371441,19.620544 17.276472,18.208504 
	C19.180367,16.793037 20.500998,15.811203 21.896992,14.773339 
	C22.183123,15.237774 22.609232,15.929420 23.350319,16.778770 
z"/>
<path fill="#E6E9ED" opacity="1.000000" stroke="none" 
	d="
M87.400696,17.758545 
	C86.641380,19.137091 86.118538,20.252981 85.535622,21.497078 
	C82.800232,21.901125 80.654266,20.998911 80.553047,17.351681 
	C81.132751,16.923885 82.357582,16.020014 83.645088,15.069890 
	C84.682755,15.700487 86.159958,16.598190 87.400696,17.758545 
z"/>
<path fill="#F1F2F5" opacity="1.000000" stroke="none" 
	d="
M66.497131,17.242861 
	C65.348999,19.160847 63.906170,20.885063 61.963978,23.206024 
	C60.672459,20.402514 60.006332,18.956547 59.332314,17.493454 
	C60.480602,16.667149 61.759911,15.746565 62.707550,15.064646 
	C63.973618,15.783541 65.088020,16.416317 66.497131,17.242861 
z"/>
<path fill="#EFF1F3" opacity="1.000000" stroke="none" 
	d="
M30.272894,12.862648 
	C29.366989,11.364441 28.796881,9.826585 27.697245,6.860344 
	C30.861633,7.232435 33.353485,7.525444 36.057148,7.843359 
	C34.628693,10.536521 33.708771,12.947793 30.272894,12.862648 
z"/>
<path fill="#D6DAE1" opacity="1.000000" stroke="none" 
	d="
M60.596512,38.594410 
	C60.278877,37.309849 59.961243,36.025284 59.644386,34.743866 
	C60.598907,34.101891 61.808029,33.288677 62.991085,32.492996 
	C64.056740,33.200321 65.282608,34.013985 66.557549,34.860218 
	C66.192276,35.714199 65.719048,36.820599 65.195221,38.391510 
	C65.144630,38.856022 64.890610,39.119884 64.890610,39.119881 
	C63.890781,39.070671 62.890949,39.021461 61.373543,38.913414 
	C60.855968,38.854584 60.596512,38.594410 60.596512,38.594410 
z"/>
<path fill="#EFF1F3" opacity="1.000000" stroke="none" 
	d="
M90.604141,9.242039 
	C91.444061,7.965447 92.504112,6.952311 93.529945,5.971876 
	C94.919586,6.891789 96.142570,7.701381 98.083755,8.986406 
	C96.230583,10.482599 94.322548,12.023084 91.991142,13.905387 
	C91.427963,11.781817 91.126114,10.643655 90.604141,9.242039 
z"/>
<path fill="#EBEDF0" opacity="1.000000" stroke="none" 
	d="
M92.305984,42.323635 
	C94.235947,42.260159 95.907814,42.446194 97.579674,42.632229 
	C97.741516,43.077847 97.903358,43.523460 98.065193,43.969078 
	C96.132912,45.541248 94.200623,47.113422 92.268333,48.685593 
	C91.738464,48.355610 91.208595,48.025623 90.678734,47.695641 
	C94.639946,46.335583 87.624741,43.887405 92.305984,42.323635 
z"/>
<path fill="#EBEDF0" opacity="1.000000" stroke="none" 
	d="
M32.034729,47.239193 
	C30.950483,47.131432 29.799841,47.269974 29.567520,46.872185 
	C29.006411,45.911434 28.874187,44.700203 28.537941,43.476799 
	C29.537378,42.791595 30.805138,41.922436 32.042946,41.073807 
	C33.220074,41.885067 34.282093,42.616993 35.344109,43.348919 
	C35.372356,43.309219 35.400604,43.269520 35.428852,43.229824 
	C35.570038,43.318375 35.711224,43.406925 35.852406,43.495480 
	C34.696926,44.744179 33.541447,45.992882 32.034729,47.239193 
z"/>
<path fill="#EFF0F3" opacity="1.000000" stroke="none" 
	d="
M65.123291,54.982048 
	C63.640148,55.887138 62.129776,56.436584 60.794823,56.922218 
	C60.259926,55.179066 59.807682,53.705257 59.419701,52.440880 
	C60.547432,51.657730 61.733807,50.833858 62.775501,50.110458 
	C64.051422,50.936527 65.286629,51.736233 66.639832,52.612335 
	C66.247658,53.123985 65.671860,53.875198 65.123291,54.982048 
z"/>
<path fill="#EDEEF1" opacity="1.000000" stroke="none" 
	d="
M50.394066,64.513023 
	C50.092300,63.544224 49.790531,62.575424 49.428009,61.411575 
	C50.177608,60.825184 51.407703,59.862915 52.706760,58.846703 
	C53.564613,59.536919 54.801579,60.532162 56.066700,61.550056 
	C55.624157,62.705719 55.054848,64.192421 54.565353,65.470695 
	C53.721287,65.326614 52.805691,65.170319 51.343246,64.918678 
	C50.662285,64.719902 50.528175,64.616463 50.394066,64.513023 
z"/>
<path fill="#EDEEF1" opacity="1.000000" stroke="none" 
	d="
M112.394073,64.513000 
	C112.092293,63.544205 111.790520,62.575405 111.427986,61.411575 
	C112.179474,60.823711 113.385811,59.880035 114.706757,58.846703 
	C115.574059,59.544514 116.821312,60.548027 118.066742,61.550076 
	C117.624191,62.705738 117.054863,64.192444 116.565369,65.470695 
	C115.721275,65.326607 114.805687,65.170319 113.343246,64.918671 
	C112.662292,64.719879 112.528183,64.616440 112.394073,64.513000 
z"/>
<path fill="#EDEFF2" opacity="1.000000" stroke="none" 
	d="
M74.835785,65.171097 
	C73.757607,65.171097 72.679436,65.171097 71.362526,65.171097 
	C71.044731,64.288277 70.556168,62.931091 70.016922,61.433090 
	C70.989403,60.683384 72.338684,59.643204 73.367821,58.849827 
	C74.472107,59.702091 75.647156,60.608967 76.863319,61.547573 
	C76.542427,62.125233 76.034462,63.039654 75.365295,64.389091 
	C75.081329,64.939766 74.958557,65.055428 74.835785,65.171097 
z"/>
<path fill="#EDEFF2" opacity="1.000000" stroke="none" 
	d="
M12.835787,65.171097 
	C12.195170,65.089371 11.545498,64.904861 10.916960,64.960243 
	C10.459414,65.000549 10.029772,65.357574 9.519357,65.606766 
	C9.044734,64.288277 8.556182,62.931099 8.016939,61.433102 
	C8.987502,60.684879 10.334282,59.646629 11.367869,58.849819 
	C12.472076,59.702038 13.647113,60.608925 14.863291,61.547562 
	C14.542406,62.125195 14.034435,63.039604 13.365274,64.389046 
	C13.081320,64.939743 12.958553,65.055420 12.835787,65.171097 
z"/>
<path fill="#D6DAE1" opacity="1.000000" stroke="none" 
	d="
M60.983315,38.987007 
	C60.909191,39.339386 60.707726,39.559345 60.506260,39.779305 
	C60.431408,39.503418 60.356556,39.227528 60.439110,38.773026 
	C60.596512,38.594410 60.855968,38.854584 60.983315,38.987007 
z"/>
<path fill="#D6DAE1" opacity="1.000000" stroke="none" 
	d="
M65.274521,38.726921 
	C65.295074,38.916794 65.185745,39.235771 64.983513,39.337318 
	C64.890610,39.119884 65.144630,38.856022 65.274521,38.726921 
z"/>
<path fill="#EDEFF2" opacity="1.000000" stroke="none" 
	d="
M13.404705,64.669907 
	C13.418947,64.900192 13.232570,65.284660 12.940989,65.420105 
	C12.958553,65.055420 13.081320,64.939743 13.404705,64.669907 
z"/>
<path fill="#EDEEF1" opacity="1.000000" stroke="none" 
	d="
M50.981514,64.997314 
	C50.883976,65.366501 50.601326,65.561707 50.318676,65.756912 
	C50.257256,65.499680 50.195835,65.242439 50.264244,64.749115 
	C50.528175,64.616463 50.662285,64.719902 50.981514,64.997314 
z"/>
<path fill="#EDEEF1" opacity="1.000000" stroke="none" 
	d="
M112.981506,64.997307 
	C112.883972,65.366493 112.601326,65.561691 112.318672,65.756897 
	C112.257256,65.499657 112.195847,65.242424 112.264252,64.749092 
	C112.528183,64.616440 112.662292,64.719879 112.981506,64.997307 
z"/>
<path fill="#EDEFF2" opacity="1.000000" stroke="none" 
	d="
M75.404724,64.669952 
	C75.418961,64.900238 75.232567,65.284676 74.940979,65.420105 
	C74.958557,65.055428 75.081329,64.939766 75.404724,64.669952 
z"/>
</svg>